<svg version="1.1" xmlns="http://www.w3.org/2000/svg" viewBox="0 0 258.4494884881278 258.449488488126" width="258.4494884881278" height="258.449488488126"><!-- svg-source:excalidraw --><metadata></metadata><defs><style class="style-fonts">
      </style></defs><g transform="translate(142.8275674128472 13.886520905367433) rotate(0 -18.861057334871475 62.18433448587734)" stroke="none"><path fill="#1971c2" d="M 1.69,-1.93 Q 1.69,-1.93 2.74,-1.01 3.79,-0.08 4.73,0.65 5.67,1.39 6.60,2.09 7.53,2.78 8.77,3.66 10.01,4.53 11.08,5.31 12.15,6.08 13.48,6.52 14.82,6.95 16.11,6.94 17.41,6.94 18.77,7.23 20.13,7.53 21.10,8.27 22.07,9.01 22.86,11.19 23.65,13.37 23.75,14.72 23.84,16.07 23.50,17.18 23.17,18.30 22.48,19.22 21.79,20.14 21.14,20.99 20.48,21.83 20.39,23.04 20.29,24.24 21.44,26.20 22.59,28.16 23.19,29.06 23.78,29.97 24.25,31.14 24.72,32.31 24.86,33.89 24.99,35.48 24.99,37.01 24.99,38.54 24.42,40.54 23.84,42.54 23.13,43.43 22.42,44.31 21.18,45.80 19.94,47.28 18.77,48.74 17.61,50.19 16.75,50.84 15.89,51.48 14.43,52.17 12.97,52.86 11.03,53.01 9.09,53.17 7.76,53.25 6.42,53.34 4.81,52.72 3.20,52.11 2.49,51.05 1.78,50.00 1.35,48.18 0.91,46.35 0.60,44.88 0.28,43.41 -0.31,42.18 -0.91,40.96 -1.58,39.92 -2.25,38.89 -1.08,38.91 0.07,38.93 0.16,40.30 0.25,41.68 -0.18,42.78 -0.62,43.87 -1.69,45.77 -2.76,47.67 -3.94,49.34 -5.12,51.02 -6.03,52.24 -6.95,53.46 -8.22,54.38 -9.50,55.31 -10.86,55.93 -12.22,56.55 -13.23,57.04 -14.23,57.53 -15.91,57.97 -17.58,58.41 -18.66,58.94 -19.73,59.48 -18.99,60.99 -18.24,62.51 -17.69,63.55 -17.13,64.59 -16.47,65.61 -15.80,66.62 -14.39,67.16 -12.99,67.70 -11.70,69.45 -10.41,71.20 -10.54,72.42 -10.68,73.64 -11.70,74.88 -12.72,76.12 -13.74,76.60 -14.76,77.08 -16.70,77.78 -18.64,78.48 -20.42,78.69 -22.21,78.89 -23.41,79.30 -24.62,79.72 -25.17,80.98 -25.73,82.25 -26.16,83.33 -26.58,84.40 -27.17,85.35 -27.75,86.30 -28.68,86.93 -29.61,87.56 -31.06,87.51 -32.51,87.46 -33.98,86.37 -35.45,85.28 -36.45,84.64 -37.46,84.01 -38.54,82.98 -39.61,81.95 -40.10,80.58 -40.59,79.21 -41.02,78.06 -41.44,76.92 -41.74,75.40 -42.04,73.89 -42.51,72.83 -42.98,71.76 -43.22,70.84 -43.45,69.92 -43.48,69.50 -43.51,69.07 -43.44,68.65 -43.36,68.23 -43.19,67.84 -43.02,67.45 -42.76,67.11 -42.50,66.78 -42.16,66.51 -41.83,66.25 -41.44,66.07 -41.06,65.89 -40.64,65.81 -40.22,65.73 -39.79,65.75 -39.37,65.78 -38.96,65.90 -38.55,66.02 -38.19,66.24 -37.82,66.46 -37.52,66.76 -37.21,67.06 -36.99,67.42 -36.77,67.78 -36.64,68.19 -36.51,68.60 -37.06,69.86 -37.61,71.13 -37.52,72.57 -37.44,74.01 -37.83,75.45 -38.22,76.89 -38.89,78.64 -39.57,80.38 -40.05,81.88 -40.53,83.38 -40.68,84.44 -40.83,85.50 -40.87,86.83 -40.91,88.16 -40.70,88.00 -40.49,87.83 -40.13,87.96 -39.76,88.08 -39.44,88.29 -39.12,88.50 -38.86,88.79 -38.60,89.07 -38.41,89.40 -38.23,89.74 -38.13,90.11 -38.03,90.48 -38.02,90.86 -38.01,91.24 -38.09,91.62 -38.17,91.99 -38.34,92.34 -38.51,92.68 -38.76,92.97 -39.01,93.27 -39.32,93.49 -39.63,93.72 -39.99,93.86 -40.34,94.01 -40.72,94.06 -41.10,94.12 -41.48,94.08 -41.86,94.04 -41.19,94.98 -40.51,95.93 -40.59,97.01 -40.67,98.09 -41.73,99.75 -42.79,101.40 -44.74,102.91 -46.70,104.41 -48.27,104.85 -49.83,105.29 -51.19,105.80 -52.55,106.31 -54.18,106.68 -55.81,107.05 -55.73,108.89 -55.65,110.73 -55.62,111.90 -55.59,113.07 -55.42,114.43 -55.25,115.78 -54.79,116.84 -54.32,117.91 -52.88,120.38 -51.43,122.85 -51.27,123.40 -51.12,123.95 -51.14,124.53 -51.17,125.10 -51.38,125.63 -51.58,126.17 -51.95,126.61 -52.32,127.05 -52.81,127.35 -53.30,127.65 -53.86,127.77 -54.42,127.90 -54.99,127.84 -55.56,127.79 -56.08,127.55 -56.60,127.31 -57.02,126.92 -57.44,126.53 -57.71,126.03 -57.98,125.52 -58.08,124.96 -58.18,124.39 -58.09,123.82 -58.00,123.26 -57.74,122.75 -57.47,122.24 -57.06,121.84 -56.65,121.45 -56.13,121.20 -55.61,120.96 -55.04,120.89 -54.47,120.82 -53.91,120.94 -53.35,121.06 -52.85,121.35 -52.36,121.65 -51.99,122.08 -51.61,122.51 -51.40,123.04 -51.18,123.58 -51.14,124.15 -51.11,124.72 -51.26,125.27 -51.41,125.83 -51.73,126.30 -52.04,126.78 -52.50,127.13 -52.95,127.48 -53.49,127.67 -54.04,127.86 -54.61,127.86 -55.18,127.86 -55.73,127.69 -56.27,127.51 -56.73,127.16 -57.19,126.82 -57.51,126.35 -57.84,125.88 -57.84,125.88 -57.84,125.88 -58.59,124.62 -59.35,123.36 -60.09,121.91 -60.84,120.46 -61.47,118.69 -62.10,116.93 -62.32,115.34 -62.54,113.75 -62.59,112.10 -62.65,110.46 -62.63,109.39 -62.61,108.32 -62.24,106.35 -61.88,104.38 -61.10,102.96 -60.31,101.54 -58.80,100.80 -57.29,100.05 -55.95,99.87 -54.60,99.69 -53.35,99.22 -52.10,98.74 -50.58,98.52 -49.05,98.29 -48.20,97.57 -47.35,96.86 -47.43,95.70 -47.51,94.55 -47.42,93.09 -47.34,91.64 -46.47,90.18 -45.60,88.72 -44.20,88.23 -42.81,87.74 -41.65,87.78 -40.49,87.83 -40.13,87.96 -39.77,88.08 -39.44,88.29 -39.12,88.50 -38.86,88.79 -38.60,89.07 -38.42,89.40 -38.23,89.74 -38.13,90.11 -38.03,90.48 -38.02,90.86 -38.01,91.24 -38.09,91.62 -38.17,91.99 -38.34,92.34 -38.51,92.68 -38.76,92.97 -39.01,93.27 -39.32,93.49 -39.63,93.72 -39.98,93.86 -40.34,94.01 -40.72,94.06 -41.10,94.12 -41.48,94.08 -41.86,94.04 -43.14,93.47 -44.41,92.91 -45.24,92.14 -46.06,91.38 -46.42,89.62 -46.77,87.86 -46.60,86.26 -46.42,84.67 -46.21,83.31 -46.01,81.95 -45.65,80.24 -45.29,78.53 -44.92,77.05 -44.55,75.57 -44.32,74.06 -44.10,72.54 -43.91,71.49 -43.72,70.43 -43.05,68.92 -42.38,67.40 -42.92,68.66 -43.45,69.92 -43.48,69.50 -43.51,69.07 -43.44,68.65 -43.36,68.23 -43.19,67.84 -43.02,67.45 -42.76,67.11 -42.50,66.78 -42.16,66.51 -41.83,66.25 -41.44,66.07 -41.06,65.89 -40.64,65.81 -40.22,65.73 -39.79,65.75 -39.37,65.78 -38.96,65.90 -38.55,66.02 -38.19,66.24 -37.82,66.46 -37.52,66.76 -37.21,67.06 -36.99,67.42 -36.77,67.78 -36.64,68.19 -36.51,68.60 -36.31,69.41 -36.11,70.22 -35.65,71.29 -35.19,72.36 -34.84,73.92 -34.48,75.48 -33.61,77.14 -32.75,78.80 -31.75,79.85 -30.75,80.89 -31.97,81.39 -33.19,81.89 -32.64,80.50 -32.09,79.10 -31.10,77.24 -30.10,75.37 -29.01,74.39 -27.92,73.41 -26.76,72.86 -25.59,72.31 -24.16,72.07 -22.73,71.83 -21.29,71.68 -19.85,71.53 -18.61,71.40 -17.37,71.28 -17.46,72.45 -17.56,73.61 -18.52,72.94 -19.48,72.27 -20.47,71.45 -21.47,70.63 -22.20,69.56 -22.93,68.48 -23.56,67.31 -24.20,66.13 -24.96,64.87 -25.73,63.61 -26.19,62.61 -26.65,61.61 -26.76,60.47 -26.87,59.32 -26.32,57.78 -25.76,56.23 -24.75,55.07 -23.73,53.91 -21.89,53.00 -20.06,52.09 -18.85,51.88 -17.65,51.68 -16.63,51.27 -15.61,50.87 -14.35,50.34 -13.09,49.80 -12.09,49.26 -11.08,48.71 -10.06,47.31 -9.04,45.91 -8.44,44.99 -7.84,44.06 -7.12,42.86 -6.40,41.66 -6.02,40.63 -5.64,39.59 -5.29,38.58 -4.94,37.58 -3.48,35.86 -2.03,34.13 0.55,35.11 3.15,36.09 3.74,37.05 4.33,38.00 5.42,39.78 6.51,41.55 7.08,43.13 7.65,44.70 8.11,46.28 8.56,47.87 7.40,47.09 6.24,46.31 7.37,46.28 8.49,46.24 10.07,46.08 11.64,45.92 12.67,45.16 13.69,44.39 14.69,43.01 15.69,41.63 16.37,40.72 17.06,39.82 17.51,38.53 17.96,37.24 17.99,35.60 18.03,33.95 17.33,32.90 16.64,31.85 15.67,30.41 14.69,28.96 13.99,27.22 13.29,25.48 13.22,24.33 13.14,23.19 13.39,21.85 13.65,20.51 14.09,19.23 14.54,17.95 15.73,16.81 16.92,15.68 16.48,14.61 16.05,13.54 14.73,13.30 13.41,13.07 12.22,12.60 11.02,12.13 9.59,11.36 8.16,10.59 7.20,9.60 6.24,8.61 5.28,7.78 4.31,6.94 3.36,6.18 2.42,5.42 1.41,4.59 0.41,3.76 -0.63,2.85 -1.69,1.93 -1.89,1.70 -2.10,1.47 -2.25,1.19 -2.39,0.92 -2.47,0.62 -2.54,0.32 -2.55,0.01 -2.55,-0.29 -2.48,-0.59 -2.40,-0.89 -2.26,-1.17 -2.12,-1.44 -1.91,-1.67 -1.71,-1.91 -1.46,-2.09 -1.20,-2.26 -0.91,-2.37 -0.63,-2.49 -0.32,-2.53 -0.01,-2.56 0.29,-2.53 0.59,-2.49 0.89,-2.39 1.18,-2.28 1.43,-2.10 1.69,-1.93 1.69,-1.93 L 1.69,-1.93 Z"></path></g><g transform="translate(88.18765586091831 140.99861639855772) rotate(0 3.429283151794152 50.86770008495478)" stroke="none"><path fill="#1971c2" d="M 0.23,2.59 Q 0.23,2.59 -1.20,2.71 -2.65,2.82 -4.31,3.32 -5.98,3.81 -6.71,4.76 -7.44,5.72 -8.38,6.51 -9.32,7.31 -10.43,7.85 -11.54,8.38 -12.47,8.92 -13.40,9.45 -14.27,10.10 -15.14,10.74 -16.07,11.39 -17.00,12.05 -17.95,12.78 -18.89,13.51 -19.96,14.19 -21.03,14.86 -22.30,15.58 -23.57,16.29 -24.73,17.05 -25.89,17.81 -26.56,18.91 -27.22,20.01 -27.27,21.20 -27.32,22.39 -27.85,24.50 -28.39,26.61 -28.51,28.06 -28.63,29.52 -28.11,30.86 -27.59,32.20 -26.86,33.46 -26.13,34.71 -25.74,35.97 -25.35,37.23 -24.97,38.36 -24.59,39.50 -23.96,40.71 -23.32,41.92 -22.36,43.29 -21.41,44.67 -20.78,45.66 -20.15,46.66 -19.22,47.73 -18.28,48.81 -17.38,50.31 -16.48,51.82 -15.36,52.55 -14.25,53.28 -13.47,54.01 -12.70,54.73 -11.39,55.79 -10.08,56.85 -9.01,57.49 -7.95,58.13 -6.50,58.79 -5.05,59.45 -3.98,59.70 -2.90,59.95 -1.76,60.16 -0.62,60.36 1.28,60.64 3.18,60.91 4.99,61.22 6.80,61.54 8.09,61.93 9.37,62.33 11.32,62.45 13.26,62.56 14.36,62.76 15.46,62.95 16.64,63.30 17.82,63.66 19.38,65.20 20.94,66.74 21.67,67.53 22.40,68.31 23.38,68.87 24.35,69.43 25.23,70.05 26.10,70.67 26.96,71.43 27.82,72.18 28.46,73.35 29.10,74.52 29.84,76.19 30.59,77.86 31.21,79.04 31.84,80.21 32.86,81.40 33.88,82.59 34.99,83.95 36.10,85.31 36.89,86.82 37.67,88.33 38.43,89.70 39.19,91.07 39.79,92.61 40.38,94.15 40.92,95.47 41.47,96.80 41.93,99.11 42.38,101.42 42.37,101.99 42.37,102.57 42.18,103.11 41.99,103.66 41.64,104.11 41.28,104.57 40.80,104.88 40.33,105.20 39.77,105.35 39.21,105.50 38.64,105.46 38.06,105.43 37.53,105.21 37.00,104.99 36.56,104.62 36.13,104.24 35.83,103.74 35.54,103.25 35.42,102.68 35.30,102.12 35.37,101.55 35.44,100.98 35.69,100.45 35.93,99.93 36.33,99.52 36.73,99.11 37.24,98.84 37.75,98.58 38.32,98.49 38.89,98.40 39.46,98.50 40.03,98.60 40.53,98.87 41.04,99.15 41.43,99.57 41.83,99.99 42.06,100.51 42.30,101.04 42.36,101.61 42.41,102.18 42.28,102.75 42.15,103.31 41.85,103.80 41.55,104.29 41.11,104.66 40.67,105.03 40.13,105.23 39.59,105.44 39.02,105.47 38.44,105.49 37.89,105.33 37.34,105.18 36.86,104.85 36.39,104.52 36.04,104.06 35.70,103.60 35.52,103.05 35.34,102.50 35.34,102.50 35.34,102.50 35.06,100.57 34.78,98.63 34.27,97.35 33.76,96.08 33.40,95.01 33.03,93.94 32.31,92.67 31.60,91.40 30.83,89.95 30.06,88.50 29.20,87.59 28.33,86.69 27.23,85.16 26.14,83.64 25.44,82.30 24.74,80.95 24.18,79.91 23.63,78.86 23.29,77.74 22.94,76.62 21.90,75.75 20.85,74.89 19.75,74.14 18.65,73.39 17.83,72.51 17.02,71.64 16.09,70.20 15.16,68.77 14.03,68.39 12.89,68.00 11.77,67.91 10.65,67.81 8.36,67.26 6.07,66.71 4.52,66.57 2.97,66.42 0.70,66.54 -1.57,66.65 -2.84,66.49 -4.12,66.33 -5.94,66.03 -7.76,65.73 -9.36,65.03 -10.97,64.33 -12.61,63.37 -14.24,62.41 -15.71,61.21 -17.18,60.01 -17.94,59.27 -18.70,58.52 -19.99,57.42 -21.27,56.33 -21.96,55.33 -22.64,54.33 -23.43,53.28 -24.22,52.24 -24.99,51.39 -25.75,50.54 -26.49,49.56 -27.22,48.58 -28.24,47.22 -29.26,45.85 -29.98,44.63 -30.70,43.41 -31.07,42.36 -31.45,41.32 -31.88,39.71 -32.31,38.11 -32.75,37.10 -33.20,36.10 -33.95,34.97 -34.70,33.85 -35.02,32.27 -35.33,30.69 -35.26,29.31 -35.20,27.93 -34.88,26.16 -34.55,24.39 -34.14,22.56 -33.73,20.73 -33.60,19.48 -33.47,18.24 -32.53,16.38 -31.60,14.53 -30.32,13.52 -29.04,12.50 -27.89,11.83 -26.73,11.17 -24.83,9.92 -22.92,8.67 -21.84,7.72 -20.77,6.77 -19.25,5.63 -17.74,4.49 -16.54,3.83 -15.34,3.18 -14.05,2.69 -12.76,2.20 -11.85,1.64 -10.95,1.07 -9.88,0.15 -8.81,-0.76 -7.34,-1.19 -5.87,-1.62 -4.50,-1.96 -3.13,-2.30 -1.68,-2.44 -0.23,-2.59 0.07,-2.58 0.39,-2.57 0.69,-2.49 0.99,-2.40 1.27,-2.25 1.54,-2.09 1.77,-1.88 2.00,-1.66 2.17,-1.40 2.34,-1.14 2.44,-0.84 2.54,-0.54 2.57,-0.23 2.60,0.07 2.55,0.38 2.51,0.70 2.39,0.99 2.27,1.28 2.08,1.53 1.89,1.78 1.65,1.98 1.41,2.18 1.13,2.32 0.85,2.46 0.54,2.53 0.23,2.59 0.23,2.59 L 0.23,2.59 Z"></path></g><g transform="translate(166.1466928450518 239.99059004703167) rotate(0 38.407971300100144 -61.95571560909116)" stroke="none"><path fill="#1971c2" d="M -1.73,-1.97 Q -1.73,-1.97 -0.60,-2.93 0.52,-3.90 1.39,-4.99 2.26,-6.07 3.38,-7.71 4.49,-9.35 5.27,-10.32 6.04,-11.29 6.83,-12.23 7.61,-13.17 8.49,-14.46 9.37,-15.75 10.46,-16.88 11.55,-18.02 12.44,-18.73 13.33,-19.44 14.46,-20.24 15.58,-21.04 16.56,-21.52 17.53,-22.01 18.65,-22.33 19.78,-22.64 20.42,-23.95 21.06,-25.26 21.52,-26.38 21.99,-27.50 22.77,-28.98 23.55,-30.47 24.38,-31.63 25.21,-32.80 25.53,-34.22 25.84,-35.65 26.44,-37.00 27.05,-38.36 27.38,-39.47 27.72,-40.58 28.47,-42.14 29.21,-43.71 29.73,-44.64 30.24,-45.57 31.16,-46.55 32.07,-47.53 33.32,-48.34 34.57,-49.15 36.05,-50.03 37.53,-50.91 38.57,-52.12 39.62,-53.33 39.94,-54.52 40.26,-55.70 41.08,-57.11 41.90,-58.53 42.89,-57.64 43.88,-56.76 41.89,-56.57 39.89,-56.37 37.51,-56.75 35.13,-57.13 34.06,-57.24 33.00,-57.35 31.96,-57.15 30.93,-56.95 30.50,-56.97 30.08,-57.00 29.68,-57.12 29.27,-57.25 28.91,-57.47 28.55,-57.69 28.25,-57.99 27.95,-58.28 27.73,-58.65 27.51,-59.01 27.38,-59.41 27.26,-59.82 27.23,-60.24 27.20,-60.66 27.28,-61.08 27.35,-61.49 27.53,-61.88 27.70,-62.27 27.96,-62.60 28.22,-62.93 28.55,-63.20 28.89,-63.46 29.27,-63.63 29.66,-63.81 30.08,-63.88 30.49,-63.96 31.44,-64.56 32.38,-65.17 33.39,-65.66 34.39,-66.15 35.18,-66.95 35.96,-67.74 36.93,-69.44 37.90,-71.13 38.51,-72.38 39.12,-73.63 39.87,-75.13 40.63,-76.62 41.64,-77.99 42.65,-79.36 43.22,-80.59 43.79,-81.81 44.23,-82.85 44.67,-83.89 45.23,-85.24 45.78,-86.59 46.38,-87.78 46.98,-88.96 47.66,-90.09 48.34,-91.22 48.62,-92.27 48.90,-93.32 48.87,-94.42 48.85,-95.52 46.99,-95.67 45.14,-95.82 43.76,-95.95 42.39,-96.08 40.97,-96.06 39.55,-96.03 38.42,-95.84 37.30,-95.65 36.99,-95.62 36.69,-95.59 36.27,-95.60 35.85,-95.60 35.45,-95.71 35.05,-95.82 34.69,-96.02 34.32,-96.22 34.02,-96.50 33.71,-96.79 33.48,-97.13 33.25,-97.48 33.11,-97.87 32.97,-98.27 32.93,-98.68 32.89,-99.09 32.95,-99.51 33.01,-99.92 33.16,-100.30 33.32,-100.69 33.56,-101.03 33.80,-101.36 34.12,-101.63 34.44,-101.90 34.81,-102.09 35.18,-102.28 35.59,-102.37 35.99,-102.46 37.12,-102.67 38.24,-102.88 40.06,-103.07 41.87,-103.25 43.72,-103.56 45.58,-103.86 47.22,-104.11 48.87,-104.36 50.15,-104.96 51.42,-105.56 52.53,-105.76 53.63,-105.96 55.14,-106.19 56.64,-106.42 57.90,-106.46 59.16,-106.49 60.25,-106.54 61.35,-106.59 63.47,-106.32 65.59,-106.05 66.71,-105.33 67.83,-104.62 68.57,-103.39 69.31,-102.16 69.95,-100.99 70.60,-99.82 71.12,-98.81 71.64,-97.81 72.26,-96.79 72.88,-95.78 72.26,-97.19 71.63,-98.60 71.61,-99.81 71.59,-101.03 71.54,-102.61 71.50,-104.20 71.49,-105.70 71.48,-107.20 71.14,-108.41 70.80,-109.62 70.83,-110.97 70.87,-112.31 70.74,-113.52 70.61,-114.72 70.81,-115.90 71.01,-117.07 71.38,-118.11 71.76,-119.16 72.05,-120.35 72.35,-121.55 72.87,-123.28 73.40,-125.00 73.66,-125.52 73.93,-126.04 74.34,-126.44 74.76,-126.85 75.28,-127.10 75.80,-127.35 76.38,-127.42 76.96,-127.49 77.52,-127.37 78.09,-127.25 78.59,-126.96 79.09,-126.67 79.48,-126.23 79.86,-125.80 80.08,-125.26 80.30,-124.72 80.34,-124.15 80.38,-123.57 80.23,-123.01 80.08,-122.45 79.77,-121.96 79.45,-121.48 78.99,-121.12 78.53,-120.76 77.99,-120.57 77.44,-120.38 76.86,-120.37 76.28,-120.36 75.73,-120.54 75.18,-120.72 74.71,-121.06 74.24,-121.41 73.91,-121.88 73.58,-122.36 73.42,-122.91 73.25,-123.47 73.28,-124.05 73.30,-124.63 73.51,-125.17 73.72,-125.71 74.08,-126.16 74.45,-126.61 74.95,-126.91 75.44,-127.22 76.00,-127.35 76.57,-127.48 77.15,-127.43 77.72,-127.37 78.25,-127.14 78.78,-126.90 79.21,-126.51 79.63,-126.11 79.91,-125.61 80.19,-125.10 80.29,-124.53 80.39,-123.95 80.31,-123.38 80.22,-122.81 80.22,-122.81 80.22,-122.81 79.76,-121.41 79.30,-120.01 78.98,-118.94 78.66,-117.87 78.11,-116.24 77.57,-114.62 77.63,-113.37 77.69,-112.12 77.59,-110.80 77.49,-109.48 77.76,-108.40 78.03,-107.32 78.03,-105.80 78.03,-104.27 78.05,-102.79 78.06,-101.30 78.14,-100.20 78.21,-99.11 78.42,-97.44 78.63,-95.78 78.35,-93.61 78.08,-91.43 76.88,-90.49 75.69,-89.54 74.50,-89.29 73.31,-89.03 72.06,-89.24 70.81,-89.45 69.29,-90.21 67.77,-90.98 66.92,-92.06 66.06,-93.14 65.67,-94.14 65.27,-95.14 64.71,-96.39 64.15,-97.63 63.72,-98.83 63.28,-100.03 62.07,-100.07 60.85,-100.10 59.36,-100.15 57.87,-100.20 56.55,-100.28 55.24,-100.37 53.68,-100.23 52.13,-100.09 51.00,-99.63 49.87,-99.18 48.41,-98.87 46.96,-98.55 44.92,-97.84 42.88,-97.12 41.40,-96.77 39.93,-96.42 38.31,-96.01 36.69,-95.59 36.27,-95.60 35.85,-95.60 35.45,-95.71 35.05,-95.82 34.69,-96.02 34.32,-96.22 34.02,-96.50 33.71,-96.79 33.48,-97.13 33.25,-97.48 33.11,-97.87 32.97,-98.27 32.93,-98.68 32.89,-99.09 32.95,-99.51 33.01,-99.92 33.16,-100.30 33.32,-100.69 33.56,-101.03 33.80,-101.36 34.12,-101.63 34.44,-101.90 34.81,-102.09 35.18,-102.27 35.59,-102.37 35.99,-102.46 36.30,-102.47 36.61,-102.49 38.04,-102.68 39.46,-102.87 40.78,-102.89 42.09,-102.90 44.04,-102.78 46.00,-102.67 47.26,-102.25 48.52,-101.83 49.91,-101.53 51.30,-101.23 52.39,-100.62 53.47,-100.01 54.19,-99.20 54.91,-98.40 55.33,-96.86 55.75,-95.32 55.65,-94.13 55.56,-92.95 55.22,-91.56 54.89,-90.17 54.51,-89.10 54.13,-88.02 53.24,-86.21 52.36,-84.39 51.83,-83.12 51.30,-81.84 50.72,-80.41 50.13,-78.99 49.43,-77.72 48.74,-76.46 47.97,-75.45 47.20,-74.43 46.49,-73.34 45.78,-72.25 45.27,-71.05 44.77,-69.85 43.92,-68.09 43.07,-66.33 42.42,-65.13 41.77,-63.94 40.95,-63.13 40.14,-62.32 38.85,-61.29 37.56,-60.25 36.51,-59.65 35.46,-59.05 34.24,-58.43 33.02,-57.82 31.97,-57.39 30.93,-56.95 30.50,-56.97 30.08,-57.00 29.68,-57.12 29.27,-57.25 28.91,-57.47 28.55,-57.69 28.25,-57.99 27.95,-58.28 27.73,-58.65 27.51,-59.01 27.38,-59.41 27.26,-59.82 27.23,-60.24 27.20,-60.66 27.28,-61.08 27.35,-61.49 27.53,-61.88 27.70,-62.27 27.96,-62.60 28.22,-62.93 28.55,-63.20 28.89,-63.46 29.27,-63.63 29.66,-63.81 30.07,-63.88 30.49,-63.96 30.93,-64.02 31.38,-64.08 32.77,-64.11 34.16,-64.13 35.52,-63.91 36.87,-63.69 38.46,-63.52 40.04,-63.35 41.13,-63.36 42.23,-63.37 44.65,-62.76 47.08,-62.15 48.11,-60.55 49.14,-58.95 48.98,-57.87 48.82,-56.80 48.46,-55.74 48.10,-54.69 47.40,-53.32 46.70,-51.94 46.09,-50.41 45.47,-48.87 44.72,-47.79 43.97,-46.70 42.51,-45.63 41.04,-44.57 39.71,-43.68 38.39,-42.79 37.39,-42.26 36.38,-41.72 35.80,-40.82 35.22,-39.93 34.75,-38.74 34.28,-37.55 33.83,-36.30 33.39,-35.05 32.90,-33.85 32.42,-32.64 32.11,-31.61 31.81,-30.57 31.33,-29.52 30.85,-28.47 30.17,-27.47 29.49,-26.48 29.03,-25.52 28.57,-24.56 28.03,-23.20 27.49,-21.85 26.61,-20.17 25.73,-18.50 24.84,-17.61 23.95,-16.72 22.62,-16.20 21.28,-15.68 20.07,-15.25 18.85,-14.82 17.78,-14.05 16.71,-13.29 15.60,-12.45 14.49,-11.61 13.75,-10.58 13.01,-9.55 12.08,-8.59 11.15,-7.64 10.32,-6.87 9.49,-6.11 8.42,-4.89 7.36,-3.68 6.45,-2.69 5.55,-1.69 4.74,-0.86 3.94,-0.03 2.84,0.96 1.73,1.97 1.47,2.14 1.21,2.32 0.92,2.44 0.62,2.55 0.30,2.59 -0.00,2.62 -0.31,2.58 -0.63,2.55 -0.93,2.43 -1.22,2.32 -1.48,2.14 -1.74,1.96 -1.95,1.72 -2.16,1.48 -2.31,1.20 -2.45,0.92 -2.53,0.61 -2.60,0.31 -2.60,-0.00 -2.60,-0.32 -2.53,-0.62 -2.45,-0.93 -2.30,-1.21 -2.15,-1.49 -1.94,-1.73 -1.73,-1.97 -1.73,-1.97 L -1.73,-1.97 Z"></path></g><g transform="translate(162.4887908164692 143.97066179677995) rotate(0 -28.005812406323457 -15.317464744683093)" stroke="none"><path fill="#1971c2" d="M 0,-2.65 Q 0,-2.65 1.05,-2.67 2.10,-2.70 3.28,-3.13 4.46,-3.55 5.58,-4.29 6.70,-5.03 7.43,-5.84 8.17,-6.65 8.12,-7.80 8.08,-8.95 7.30,-8.21 6.52,-7.47 5.14,-7.22 3.75,-6.97 2.56,-6.53 1.38,-6.10 0.13,-5.66 -1.11,-5.22 -3.00,-4.80 -4.88,-4.38 -6.04,-3.91 -7.21,-3.45 -9.33,-3.42 -11.45,-3.39 -12.38,-3.97 -13.31,-4.56 -14.22,-5.45 -15.12,-6.34 -15.90,-7.15 -16.68,-7.96 -17.23,-9.07 -17.79,-10.19 -18.56,-11.55 -19.33,-12.91 -19.94,-13.80 -20.54,-14.68 -21.17,-15.61 -21.79,-16.54 -22.68,-17.72 -23.57,-18.89 -24.11,-19.84 -24.65,-20.79 -25.68,-21.82 -26.72,-22.86 -27.96,-24.42 -29.20,-25.98 -30.15,-26.60 -31.11,-27.22 -31.95,-26.00 -32.79,-24.78 -32.53,-23.69 -32.27,-22.59 -31.76,-21.63 -31.24,-20.66 -30.70,-19.57 -30.16,-18.47 -29.33,-17.16 -28.49,-15.85 -28.35,-14.58 -28.21,-13.32 -28.92,-11.17 -29.62,-9.02 -30.77,-8.29 -31.93,-7.57 -32.94,-7.12 -33.95,-6.67 -35.50,-6.28 -37.06,-5.88 -39.06,-6.38 -41.07,-6.88 -42.34,-7.40 -43.62,-7.91 -45.08,-8.70 -46.54,-9.49 -47.35,-10.38 -48.15,-11.28 -49.18,-12.74 -50.21,-14.21 -50.98,-15.59 -51.75,-16.97 -52.64,-16.23 -53.53,-15.48 -54.48,-14.98 -55.43,-14.48 -56.65,-13.66 -57.86,-12.85 -58.84,-12.09 -59.82,-11.33 -60.65,-10.60 -61.49,-9.87 -62.09,-8.98 -62.70,-8.09 -63.80,-6.20 -64.90,-4.31 -65.37,-3.97 -65.84,-3.63 -66.40,-3.46 -66.95,-3.29 -67.54,-3.31 -68.12,-3.32 -68.66,-3.52 -69.21,-3.72 -69.66,-4.09 -70.12,-4.45 -70.43,-4.94 -70.74,-5.43 -70.88,-6.00 -71.02,-6.56 -70.98,-7.14 -70.93,-7.72 -70.70,-8.26 -70.47,-8.79 -70.08,-9.23 -69.69,-9.66 -69.18,-9.94 -68.68,-10.23 -68.10,-10.34 -67.53,-10.45 -66.96,-10.37 -66.38,-10.29 -65.86,-10.03 -65.34,-9.77 -64.93,-9.36 -64.52,-8.95 -64.26,-8.43 -64.00,-7.91 -63.92,-7.33 -63.84,-6.75 -63.95,-6.18 -64.06,-5.61 -64.35,-5.10 -64.64,-4.60 -65.07,-4.21 -65.50,-3.82 -66.04,-3.59 -66.57,-3.36 -67.15,-3.32 -67.73,-3.27 -68.30,-3.41 -68.86,-3.55 -69.35,-3.86 -69.84,-4.18 -70.21,-4.63 -70.57,-5.09 -70.77,-5.63 -70.97,-6.18 -70.99,-6.76 -71.00,-7.34 -70.83,-7.90 -70.66,-8.45 -70.32,-8.93 -69.98,-9.40 -69.98,-9.40 -69.98,-9.40 -69.26,-10.84 -68.53,-12.28 -67.80,-13.29 -67.08,-14.30 -66.18,-15.18 -65.28,-16.07 -64.21,-16.88 -63.13,-17.70 -61.75,-18.66 -60.37,-19.63 -59.00,-20.59 -57.62,-21.55 -56.07,-22.12 -54.52,-22.69 -53.29,-23.14 -52.06,-23.60 -50.76,-23.55 -49.45,-23.51 -48.24,-22.86 -47.02,-22.21 -46.27,-20.92 -45.51,-19.63 -44.79,-18.29 -44.07,-16.95 -43.23,-15.82 -42.40,-14.68 -40.87,-14.10 -39.34,-13.51 -38.30,-13.28 -37.26,-13.05 -36.23,-13.34 -35.20,-13.63 -35.97,-15.03 -36.75,-16.42 -37.56,-17.86 -38.37,-19.30 -38.93,-20.44 -39.48,-21.58 -39.64,-23.51 -39.79,-25.43 -39.21,-26.94 -38.62,-28.45 -37.55,-29.98 -36.48,-31.50 -35.37,-32.48 -34.26,-33.46 -32.22,-33.84 -30.18,-34.21 -29.10,-33.80 -28.03,-33.38 -27.12,-32.80 -26.22,-32.21 -25.10,-31.35 -23.98,-30.50 -22.54,-28.87 -21.11,-27.24 -20.30,-26.40 -19.49,-25.56 -18.76,-24.40 -18.02,-23.23 -17.25,-22.21 -16.48,-21.18 -15.77,-20.12 -15.06,-19.06 -14.44,-18.10 -13.83,-17.15 -13.28,-16.19 -12.72,-15.24 -12.14,-14.26 -11.56,-13.29 -10.75,-12.18 -9.95,-11.06 -8.90,-9.89 -7.85,-8.73 -9.20,-9.18 -10.56,-9.64 -9.34,-9.89 -8.11,-10.14 -7.00,-10.57 -5.89,-10.99 -4.73,-11.22 -3.57,-11.45 -2.17,-11.93 -0.78,-12.40 0.65,-12.88 2.08,-13.37 4.21,-13.74 6.33,-14.12 7.83,-14.20 9.32,-14.27 10.59,-13.99 11.87,-13.70 13.00,-12.61 14.14,-11.52 14.43,-9.83 14.73,-8.14 14.55,-6.81 14.38,-5.49 13.97,-4.40 13.57,-3.32 12.45,-2.07 11.33,-0.83 9.94,0.08 8.56,1.00 7.26,1.52 5.96,2.05 4.03,2.37 2.10,2.70 1.05,2.67 0,2.65 -0.31,2.61 -0.63,2.57 -0.93,2.46 -1.23,2.34 -1.49,2.16 -1.75,1.98 -1.97,1.74 -2.18,1.50 -2.33,1.22 -2.47,0.94 -2.55,0.62 -2.63,0.31 -2.63,-0.00 -2.63,-0.31 -2.55,-0.63 -2.47,-0.94 -2.33,-1.22 -2.18,-1.50 -1.97,-1.74 -1.75,-1.98 -1.49,-2.16 -1.23,-2.34 -0.93,-2.46 -0.63,-2.57 -0.31,-2.61 0.00,-2.65 0.00,-2.65 L 0,-2.65 Z"></path></g><g transform="translate(104.19097723595951 138.7124276306945) rotate(0 29.834763420613854 5.029615289299045)" stroke="none"><path fill="#1971c2" d="M 0,-2.44 Q 0,-2.44 2.23,-2.30 4.46,-2.15 6.14,-2.14 7.81,-2.14 9.36,-2.26 10.90,-2.38 12.17,-2.06 13.44,-1.75 14.43,-1.34 15.43,-0.92 16.48,-0.34 17.53,0.24 18.52,0.94 19.51,1.64 20.60,2.35 21.68,3.07 22.79,4.21 23.89,5.35 25.00,5.76 26.12,6.17 27.63,6.36 29.14,6.55 30.71,6.38 32.27,6.20 33.53,6.07 34.79,5.93 36.17,5.68 37.56,5.43 39.05,5.41 40.55,5.40 42.06,5.27 43.57,5.14 45.06,4.95 46.56,4.77 48.03,4.48 49.50,4.18 50.62,4.03 51.74,3.87 52.76,3.49 53.77,3.12 55.80,2.42 57.82,1.72 58.36,1.50 58.90,1.29 59.48,1.26 60.06,1.23 60.62,1.39 61.18,1.54 61.66,1.87 62.14,2.20 62.49,2.66 62.84,3.12 63.02,3.67 63.21,4.23 63.21,4.81 63.20,5.39 63.02,5.94 62.83,6.49 62.48,6.95 62.12,7.41 61.64,7.73 61.16,8.06 60.60,8.21 60.04,8.36 59.46,8.33 58.88,8.30 58.34,8.08 57.81,7.87 57.36,7.49 56.92,7.11 56.62,6.61 56.33,6.11 56.20,5.55 56.08,4.98 56.14,4.40 56.21,3.83 56.45,3.30 56.70,2.77 57.10,2.35 57.50,1.93 58.02,1.66 58.53,1.39 59.10,1.30 59.68,1.21 60.25,1.30 60.82,1.40 61.33,1.67 61.85,1.95 62.24,2.37 62.64,2.79 62.88,3.32 63.13,3.85 63.19,4.42 63.25,5.00 63.12,5.57 62.99,6.13 62.69,6.63 62.39,7.13 61.95,7.50 61.51,7.88 61.51,7.88 61.51,7.88 58.54,8.95 55.57,10.02 54.06,10.43 52.54,10.85 51.39,10.97 50.25,11.08 49.00,11.30 47.75,11.52 46.32,11.71 44.89,11.90 42.75,12.17 40.60,12.43 39.05,12.45 37.50,12.48 36.38,12.69 35.25,12.91 34.11,13.03 32.98,13.15 31.66,13.32 30.35,13.49 28.76,13.25 27.18,13.02 25.97,12.94 24.76,12.86 23.42,12.41 22.08,11.96 21.18,11.33 20.29,10.70 19.23,9.46 18.18,8.22 17.31,7.48 16.43,6.75 14.79,5.40 13.14,4.06 12.02,3.22 10.90,2.38 9.36,2.26 7.81,2.14 6.14,2.14 4.46,2.15 2.23,2.30 0,2.44 -0.29,2.41 -0.58,2.37 -0.86,2.27 -1.13,2.16 -1.38,1.99 -1.62,1.83 -1.81,1.61 -2.01,1.39 -2.15,1.12 -2.28,0.86 -2.35,0.58 -2.42,0.29 -2.42,-0.00 -2.42,-0.29 -2.35,-0.58 -2.28,-0.86 -2.15,-1.12 -2.01,-1.39 -1.81,-1.61 -1.62,-1.83 -1.38,-1.99 -1.13,-2.16 -0.86,-2.27 -0.58,-2.37 -0.29,-2.41 0.00,-2.44 0.00,-2.44 L 0,-2.44 Z"></path></g><g transform="translate(28.060891266117324 75.84223651445836) rotate(0 43.6662054661856 -26.97702746078494)" stroke="none"><path fill="#1971c2" d="M -1.07,-2.41 Q -1.07,-2.41 0.10,-2.94 1.29,-3.47 3.13,-4.36 4.98,-5.26 6.21,-6.03 7.43,-6.80 8.84,-7.51 10.25,-8.21 11.26,-8.70 12.27,-9.19 13.95,-9.46 15.62,-9.73 16.67,-9.20 17.71,-8.67 18.52,-7.11 19.34,-5.54 19.46,-4.00 19.58,-2.45 17.54,-3.53 15.50,-4.60 14.48,-3.60 13.46,-2.60 14.20,-4.11 14.94,-5.63 15.53,-7.02 16.12,-8.42 16.59,-9.45 17.05,-10.48 17.91,-12.11 18.76,-13.74 19.68,-14.84 20.60,-15.94 21.59,-17.24 22.59,-18.54 24.77,-20.28 26.96,-22.03 27.80,-22.75 28.64,-23.48 30.20,-24.77 31.77,-26.07 32.77,-26.80 33.77,-27.53 34.76,-28.00 35.76,-28.47 36.90,-28.91 38.04,-29.35 39.96,-29.58 41.87,-29.81 43.00,-28.90 44.13,-27.98 44.69,-26.60 45.26,-25.22 45.55,-23.29 45.83,-21.36 45.88,-19.85 45.93,-18.33 45.09,-19.29 44.25,-20.24 45.97,-21.69 47.70,-23.13 48.69,-23.73 49.69,-24.33 51.20,-25.18 52.71,-26.03 54.56,-26.67 56.40,-27.31 57.77,-27.45 59.14,-27.60 60.75,-27.71 62.35,-27.82 63.96,-28.17 65.56,-28.51 66.76,-28.73 67.96,-28.95 69.72,-29.73 71.48,-30.52 72.69,-31.07 73.90,-31.63 74.91,-32.26 75.91,-32.89 77.18,-33.67 78.45,-34.45 79.43,-35.09 80.41,-35.72 81.26,-36.74 82.11,-37.76 82.76,-38.83 83.41,-39.89 83.55,-40.97 83.70,-42.05 82.56,-43.39 81.42,-44.74 80.33,-45.97 79.24,-47.20 78.33,-48.16 77.41,-49.13 76.86,-52.70 76.30,-56.27 76.75,-56.65 77.19,-57.04 77.73,-57.26 78.28,-57.48 78.86,-57.52 79.45,-57.56 80.02,-57.41 80.58,-57.26 81.07,-56.94 81.56,-56.61 81.92,-56.15 82.28,-55.69 82.48,-55.13 82.67,-54.58 82.68,-53.99 82.69,-53.40 82.50,-52.84 82.32,-52.29 81.97,-51.81 81.62,-51.34 81.14,-51.01 80.66,-50.67 80.10,-50.51 79.53,-50.35 78.94,-50.37 78.36,-50.40 77.81,-50.61 77.26,-50.82 76.81,-51.19 76.36,-51.57 76.05,-52.07 75.74,-52.57 75.61,-53.14 75.47,-53.71 75.53,-54.30 75.59,-54.88 75.83,-55.42 76.07,-55.95 76.47,-56.38 76.87,-56.81 77.38,-57.09 77.90,-57.38 78.48,-57.48 79.06,-57.58 79.64,-57.49 80.22,-57.40 80.74,-57.13 81.26,-56.86 81.67,-56.44 82.08,-56.02 82.33,-55.49 82.58,-54.96 82.65,-54.38 82.72,-53.79 82.60,-53.22 82.48,-52.64 82.19,-52.14 81.89,-51.63 81.89,-51.63 81.89,-51.63 82.23,-52.92 82.58,-54.21 83.70,-53.03 84.82,-51.86 85.79,-50.78 86.76,-49.70 87.46,-48.76 88.17,-47.82 89.34,-46.29 90.51,-44.76 90.74,-43.65 90.97,-42.54 90.89,-41.35 90.81,-40.16 90.50,-39.05 90.19,-37.94 89.79,-36.95 89.38,-35.97 88.17,-34.21 86.96,-32.46 85.97,-31.40 84.97,-30.35 83.54,-29.42 82.12,-28.48 80.98,-27.76 79.83,-27.04 78.49,-26.19 77.15,-25.34 75.74,-24.66 74.34,-23.98 73.21,-23.38 72.08,-22.79 70.69,-22.36 69.30,-21.92 67.83,-21.67 66.36,-21.41 65.29,-21.09 64.23,-20.78 62.68,-20.67 61.13,-20.56 59.87,-20.45 58.62,-20.34 57.45,-20.05 56.28,-19.76 55.20,-19.17 54.12,-18.59 52.60,-17.89 51.08,-17.19 49.72,-16.00 48.36,-14.80 47.11,-14.38 45.86,-13.96 44.59,-13.73 43.32,-13.50 41.80,-14.41 40.28,-15.32 39.68,-16.75 39.07,-18.19 39.03,-19.47 39.00,-20.76 39.73,-21.86 40.46,-22.96 38.91,-22.49 37.35,-22.03 36.44,-21.43 35.53,-20.82 34.29,-19.78 33.05,-18.74 32.02,-17.73 30.99,-16.72 30.02,-15.87 29.04,-15.03 28.20,-14.02 27.35,-13.02 26.71,-12.15 26.06,-11.29 25.00,-10.09 23.94,-8.89 23.39,-7.78 22.83,-6.66 22.14,-5.14 21.44,-3.63 20.53,-1.73 19.61,0.16 18.41,0.95 17.21,1.74 15.03,0.00 12.85,-1.73 13.19,-2.77 13.52,-3.81 14.60,-3.80 15.68,-3.78 14.60,-3.50 13.51,-3.22 11.94,-2.54 10.37,-1.87 8.85,-1.08 7.33,-0.29 5.38,0.53 3.44,1.36 2.25,1.89 1.07,2.41 0.76,2.50 0.46,2.60 0.14,2.61 -0.17,2.63 -0.48,2.57 -0.79,2.51 -1.08,2.38 -1.37,2.25 -1.62,2.05 -1.87,1.85 -2.07,1.60 -2.26,1.35 -2.39,1.06 -2.52,0.77 -2.58,0.46 -2.63,0.14 -2.61,-0.17 -2.59,-0.48 -2.50,-0.79 -2.40,-1.09 -2.23,-1.36 -2.07,-1.63 -1.84,-1.86 -1.61,-2.08 -1.34,-2.25 -1.07,-2.41 -1.07,-2.41 L -1.07,-2.41 Z"></path></g><g transform="translate(194.4954335665534 224.4445064255624) rotate(0 6.5156379884101625 -6.972875741982534)" stroke="none"><path fill="#1971c2" d="M -2.17,-1.49 Q -2.17,-1.49 -1.45,-2.55 -0.73,-3.61 0.02,-4.45 0.77,-5.30 1.55,-6.21 2.33,-7.12 3.11,-8.05 3.89,-8.99 4.76,-9.86 5.63,-10.73 6.80,-11.67 7.97,-12.61 9.02,-14.00 10.07,-15.40 10.38,-15.83 10.69,-16.27 11.13,-16.58 11.56,-16.89 12.07,-17.05 12.58,-17.21 13.11,-17.19 13.64,-17.18 14.14,-16.99 14.64,-16.81 15.06,-16.48 15.48,-16.14 15.76,-15.70 16.05,-15.25 16.18,-14.73 16.31,-14.21 16.27,-13.68 16.23,-13.15 16.02,-12.66 15.81,-12.17 15.45,-11.77 15.09,-11.37 14.63,-11.11 14.17,-10.85 13.64,-10.75 13.12,-10.65 12.59,-10.72 12.06,-10.79 11.58,-11.03 11.11,-11.26 10.73,-11.64 10.35,-12.02 10.11,-12.49 9.88,-12.97 9.80,-13.50 9.73,-14.03 9.83,-14.55 9.93,-15.07 10.19,-15.54 10.46,-16.00 10.85,-16.36 11.25,-16.72 11.74,-16.93 12.23,-17.14 12.76,-17.18 13.29,-17.23 13.81,-17.10 14.33,-16.97 14.77,-16.68 15.22,-16.40 15.56,-15.98 15.89,-15.57 16.08,-15.07 16.26,-14.57 16.28,-14.03 16.29,-13.50 16.14,-12.99 15.98,-12.48 15.98,-12.48 15.98,-12.48 14.51,-10.54 13.04,-8.60 11.98,-7.69 10.93,-6.77 10.03,-6.17 9.14,-5.56 8.33,-4.82 7.53,-4.08 6.58,-3.30 5.64,-2.51 4.63,-1.55 3.62,-0.59 2.90,0.45 2.17,1.49 1.96,1.73 1.75,1.97 1.49,2.15 1.23,2.34 0.93,2.45 0.63,2.56 0.32,2.60 0.00,2.64 -0.31,2.60 -0.62,2.56 -0.92,2.45 -1.22,2.34 -1.48,2.16 -1.75,1.98 -1.96,1.74 -2.17,1.50 -2.32,1.22 -2.47,0.94 -2.54,0.63 -2.62,0.32 -2.62,0.00 -2.62,-0.31 -2.55,-0.62 -2.47,-0.93 -2.32,-1.21 -2.17,-1.49 -2.17,-1.49 L -2.17,-1.49 Z"></path></g><g transform="translate(92.76003339664385 87.73041810734685) rotate(0 -0.3429283151790514 1.6003321375042106)" stroke="none"><path fill="#1971c2" d="M 2.28,0.76 Q 2.28,0.76 2.02,2.11 1.76,3.47 1.65,3.85 1.54,4.23 1.32,4.56 1.09,4.89 0.78,5.13 0.46,5.37 0.08,5.50 -0.29,5.63 -0.69,5.63 -1.08,5.63 -1.46,5.50 -1.84,5.37 -2.16,5.13 -2.47,4.89 -2.70,4.56 -2.92,4.23 -3.02,3.84 -3.13,3.46 -3.11,3.06 -3.09,2.66 -2.94,2.29 -2.79,1.92 -2.53,1.62 -2.27,1.31 -1.93,1.11 -1.59,0.91 -1.20,0.82 -0.81,0.74 -0.41,0.78 -0.02,0.82 0.33,0.99 0.70,1.16 0.98,1.43 1.27,1.71 1.46,2.06 1.65,2.41 1.71,2.81 1.77,3.20 1.71,3.59 1.64,3.99 1.45,4.34 1.27,4.69 0.98,4.96 0.69,5.24 0.33,5.40 -0.03,5.57 -0.42,5.61 -0.82,5.66 -1.21,5.57 -1.60,5.48 -1.94,5.28 -2.28,5.07 -2.54,4.77 -2.79,4.46 -2.94,4.09 -3.09,3.72 -3.11,3.32 -3.13,2.92 -3.13,2.92 -3.13,2.92 -2.70,1.08 -2.28,-0.76 -2.15,-1.02 -2.03,-1.28 -1.84,-1.50 -1.66,-1.73 -1.43,-1.90 -1.20,-2.08 -0.93,-2.19 -0.66,-2.30 -0.38,-2.35 -0.09,-2.40 0.19,-2.37 0.47,-2.35 0.75,-2.26 1.02,-2.17 1.27,-2.01 1.51,-1.86 1.72,-1.65 1.92,-1.44 2.06,-1.19 2.21,-0.94 2.29,-0.66 2.37,-0.38 2.38,-0.09 2.39,0.19 2.33,0.47 2.28,0.76 2.28,0.76 L 2.28,0.76 Z"></path></g><g transform="translate(88.41627473770495 64.63991155192889) rotate(0 4.115139782153165 -1.6003321375042106)" stroke="none"><path fill="#1971c2" d="M -1.79,-1.79 Q -1.79,-1.79 -1.28,-2.35 -0.77,-2.92 0.22,-3.62 1.21,-4.32 2.22,-4.80 3.22,-5.28 4.36,-5.72 5.51,-6.16 8.26,-4.13 11.02,-2.10 11.17,-1.62 11.33,-1.14 11.32,-0.63 11.31,-0.12 11.14,0.35 10.97,0.82 10.66,1.22 10.34,1.62 9.92,1.90 9.49,2.18 9.00,2.30 8.51,2.43 8.01,2.40 7.50,2.36 7.03,2.16 6.56,1.97 6.18,1.63 5.80,1.30 5.55,0.86 5.29,0.42 5.19,-0.07 5.09,-0.56 5.16,-1.07 5.22,-1.57 5.44,-2.03 5.66,-2.48 6.02,-2.85 6.37,-3.21 6.82,-3.44 7.27,-3.67 7.78,-3.74 8.28,-3.82 8.78,-3.73 9.28,-3.63 9.72,-3.39 10.16,-3.14 10.51,-2.77 10.85,-2.40 11.05,-1.93 11.26,-1.47 11.31,-0.96 11.35,-0.46 11.24,0.03 11.12,0.52 10.85,0.95 10.58,1.38 10.19,1.70 9.80,2.02 9.32,2.20 8.85,2.38 8.34,2.40 7.83,2.42 7.35,2.28 6.86,2.13 6.45,1.84 6.03,1.55 5.73,1.14 5.43,0.73 5.43,0.73 5.43,0.73 5.25,0.23 5.07,-0.27 3.98,0.27 2.88,0.82 2.33,1.30 1.79,1.79 1.54,1.97 1.30,2.16 1.03,2.29 0.75,2.41 0.45,2.47 0.15,2.52 -0.15,2.50 -0.45,2.48 -0.74,2.39 -1.03,2.30 -1.30,2.15 -1.56,1.99 -1.77,1.77 -1.99,1.56 -2.15,1.29 -2.30,1.03 -2.39,0.74 -2.49,0.45 -2.50,0.15 -2.52,-0.15 -2.47,-0.45 -2.41,-0.75 -2.29,-1.03 -2.16,-1.30 -1.97,-1.55 -1.78,-1.79 -1.78,-1.79 L -1.79,-1.79 Z"></path></g><g stroke-linecap="round" transform="translate(10 10) rotate(0 119.224744244063 119.224744244063)"><path d="M35.52 35.4 C43.4 24.64, 56.7 17.55, 68.56 11.68 C80.43 5.8, 93.12 1.28, 106.71 0.12 C120.29 -1.03, 136.49 1.02, 150.07 4.75 C163.64 8.47, 177.09 14.89, 188.18 22.48 C199.28 30.06, 208.75 39.61, 216.61 50.28 C224.47 60.94, 231.91 73.81, 235.36 86.46 C238.82 99.11, 238.81 112.75, 237.32 126.18 C235.82 139.6, 231.68 154.59, 226.38 166.99 C221.09 179.39, 214.83 190.68, 205.53 200.58 C196.22 210.47, 183.18 219.94, 170.54 226.35 C157.89 232.75, 143.24 237.74, 129.64 239.01 C116.04 240.29, 101.92 237.4, 88.94 234.01 C75.96 230.63, 62.59 226.14, 51.78 218.71 C40.98 211.29, 31.76 200.85, 24.09 189.45 C16.42 178.05, 9.74 163.59, 5.74 150.33 C1.74 137.07, -0.57 123.01, 0.08 109.89 C0.73 96.76, 3.18 84.96, 9.61 71.58 C16.04 58.2, 32.39 36.92, 38.66 29.61 C44.92 22.3, 45.68 26.03, 47.19 27.7 M214.97 46.78 C224.73 56.1, 231.25 71.46, 234.78 84.35 C238.31 97.23, 236.74 110.17, 236.13 124.08 C235.52 137.99, 236.54 154.7, 231.12 167.8 C225.71 180.91, 213.19 193.53, 203.64 202.7 C194.09 211.87, 185.54 217.35, 173.81 222.82 C162.07 228.28, 147.01 233.53, 133.23 235.5 C119.46 237.46, 104.79 237.42, 91.16 234.62 C77.52 231.82, 62.87 225.51, 51.44 218.69 C40.01 211.88, 30.03 204.36, 22.57 193.73 C15.11 183.11, 10.83 168.37, 6.7 154.94 C2.57 141.52, -2.25 127.28, -2.21 113.18 C-2.16 99.09, 1.43 82.6, 6.96 70.36 C12.48 58.12, 21.12 48.93, 30.94 39.74 C40.77 30.56, 53.34 22.23, 65.9 15.26 C78.45 8.29, 92.77 0.23, 106.26 -2.09 C119.76 -4.42, 134.23 -2.11, 146.87 1.3 C159.51 4.72, 170.9 11.05, 182.1 18.41 C193.3 25.77, 208.91 40.25, 214.08 45.47 C219.24 50.68, 214.12 48.6, 213.09 49.7" stroke="#1971c2" stroke-width="4" fill="none"></path></g></svg>
