<svg version="1.1" xmlns="http://www.w3.org/2000/svg" viewBox="0 0 270.6646416095682 225.5961386161689" width="270.6646416095682" height="225.5961386161689"><!-- svg-source:excalidraw --><metadata></metadata><defs><style class="style-fonts">
      </style></defs><g transform="translate(10 66.67629309979384) rotate(0 0.00005000000010113581 0.00005000000010113581)" stroke="none"><path fill="#a6f7b8" d="M 6.28,-6.28 Q 6.28,-6.28 7.11,-5.11 7.95,-3.94 8.37,-2.57 8.80,-1.19 8.76,0.23 8.72,1.67 8.22,3.02 7.73,4.37 6.83,5.49 5.93,6.61 4.72,7.38 3.50,8.15 2.11,8.50 0.72,8.85 -0.71,8.73 -2.14,8.61 -3.46,8.05 -4.78,7.48 -5.85,6.52 -6.92,5.56 -7.63,4.31 -8.33,3.06 -8.60,1.65 -8.87,0.23 -8.68,-1.18 -8.49,-2.60 -7.85,-3.89 -7.21,-5.18 -6.19,-6.19 -5.18,-7.21 -3.89,-7.85 -2.60,-8.49 -1.18,-8.68 0.24,-8.87 1.65,-8.60 3.06,-8.33 4.31,-7.62 5.56,-6.92 6.52,-5.85 7.48,-4.78 8.05,-3.46 8.62,-2.14 8.73,-0.70 8.85,0.72 8.50,2.11 8.15,3.51 7.38,4.72 6.61,5.93 5.49,6.83 4.36,7.73 3.02,8.22 1.67,8.72 0.23,8.76 -1.20,8.80 -2.57,8.37 -3.94,7.95 -5.11,7.11 -6.28,6.27 -6.28,6.28 -6.28,6.28 -6.94,5.43 -7.60,4.59 -8.04,3.61 -8.48,2.64 -8.67,1.58 -8.86,0.53 -8.80,-0.53 -8.73,-1.60 -8.41,-2.62 -8.09,-3.64 -7.54,-4.56 -6.99,-5.47 -6.23,-6.23 -5.47,-6.99 -4.56,-7.54 -3.64,-8.10 -2.62,-8.41 -1.60,-8.73 -0.53,-8.80 0.53,-8.86 1.59,-8.67 2.64,-8.48 3.61,-8.04 4.59,-7.60 5.43,-6.94 6.28,-6.28 6.28,-6.28 L 6.28,-6.28 Z"></path></g><g transform="translate(260.664541609568 177.39253039887444) rotate(0 0.00005000000010113581 0.00005000000010113581)" stroke="none"><path fill="#a6f7b8" d="M 3.14,-3.14 Q 3.14,-3.14 3.55,-2.55 3.97,-1.97 4.18,-1.28 4.40,-0.59 4.38,0.11 4.36,0.83 4.11,1.51 3.86,2.18 3.41,2.74 2.96,3.30 2.36,3.69 1.75,4.08 1.05,4.25 0.36,4.42 -0.35,4.36 -1.07,4.31 -1.73,4.02 -2.39,3.74 -2.92,3.26 -3.46,2.78 -3.81,2.15 -4.16,1.53 -4.30,0.82 -4.43,0.11 -4.34,-0.59 -4.24,-1.30 -3.92,-1.94 -3.60,-2.59 -3.09,-3.09 -2.59,-3.60 -1.94,-3.92 -1.30,-4.24 -0.59,-4.34 0.12,-4.43 0.82,-4.30 1.53,-4.16 2.15,-3.81 2.78,-3.46 3.26,-2.92 3.74,-2.39 4.02,-1.73 4.31,-1.07 4.36,-0.35 4.42,0.36 4.25,1.05 4.07,1.75 3.69,2.36 3.30,2.96 2.74,3.41 2.18,3.86 1.51,4.11 0.83,4.36 0.11,4.38 -0.60,4.40 -1.28,4.18 -1.97,3.97 -2.55,3.55 -3.14,3.13 -3.14,3.14 -3.14,3.14 -3.47,2.71 -3.80,2.29 -4.02,1.80 -4.24,1.32 -4.33,0.79 -4.43,0.26 -4.40,-0.26 -4.36,-0.80 -4.20,-1.31 -4.04,-1.82 -3.77,-2.28 -3.49,-2.73 -3.11,-3.11 -2.73,-3.49 -2.28,-3.77 -1.82,-4.05 -1.31,-4.20 -0.80,-4.36 -0.26,-4.40 0.26,-4.43 0.79,-4.33 1.32,-4.24 1.80,-4.02 2.29,-3.80 2.71,-3.47 3.14,-3.14 3.14,-3.14 L 3.14,-3.14 Z"></path></g><g transform="translate(134.11646786121582 215.5960386161687) rotate(0 0.00005000000010113581 0.00005000000010113581)" stroke="none"><path fill="#fa89e7" d="M 6.28,-6.28 Q 6.28,-6.28 7.11,-5.11 7.95,-3.94 8.37,-2.57 8.80,-1.19 8.76,0.23 8.72,1.67 8.22,3.02 7.73,4.37 6.83,5.49 5.93,6.61 4.72,7.38 3.50,8.15 2.11,8.50 0.72,8.85 -0.71,8.73 -2.14,8.61 -3.46,8.05 -4.78,7.48 -5.85,6.52 -6.92,5.56 -7.63,4.31 -8.33,3.06 -8.60,1.65 -8.87,0.23 -8.68,-1.18 -8.49,-2.60 -7.85,-3.89 -7.21,-5.18 -6.19,-6.19 -5.18,-7.21 -3.89,-7.85 -2.60,-8.49 -1.18,-8.68 0.24,-8.87 1.65,-8.60 3.06,-8.33 4.31,-7.62 5.56,-6.92 6.52,-5.85 7.48,-4.78 8.05,-3.46 8.62,-2.14 8.73,-0.70 8.85,0.72 8.50,2.11 8.15,3.51 7.38,4.72 6.61,5.93 5.49,6.83 4.36,7.73 3.02,8.22 1.67,8.72 0.23,8.76 -1.20,8.80 -2.57,8.37 -3.94,7.95 -5.11,7.11 -6.28,6.27 -6.28,6.28 -6.28,6.28 -6.94,5.43 -7.60,4.59 -8.04,3.61 -8.48,2.64 -8.67,1.58 -8.86,0.53 -8.80,-0.53 -8.73,-1.60 -8.41,-2.62 -8.09,-3.64 -7.54,-4.56 -6.99,-5.47 -6.23,-6.23 -5.47,-6.99 -4.56,-7.54 -3.64,-8.10 -2.62,-8.41 -1.60,-8.73 -0.53,-8.80 0.53,-8.86 1.59,-8.67 2.64,-8.48 3.61,-8.04 4.59,-7.60 5.43,-6.94 6.28,-6.28 6.28,-6.28 L 6.28,-6.28 Z"></path></g><g stroke-linecap="round"><g transform="translate(124.91614797333386 203.49653685737894) rotate(0 -53.270912923841934 -62.62752387443879)"><path d="M0 0 C-30.77 -37.38, -64.91 -74.91, -106.54 -125.26" stroke="#ced4da" stroke-width="2.5" fill="none" stroke-dasharray="8 10"></path></g><g transform="translate(124.91614797333386 203.49653685737894) rotate(0 -53.270912923841934 -62.62752387443879)"><path d="M1.97 1.74 L-12.4 -4.86 L-3.97 -12.77 L-1.87 -1.5" stroke="none" stroke-width="0" fill="#ced4da" fill-rule="evenodd"></path><path d="M0 0 C-3.11 -1.75, -8.49 -3.12, -13.65 -6.22 M-13.65 -6.22 C-11.91 -7.23, -7.75 -9.51, -4.01 -14.45 M-4.01 -14.45 C-4.03 -9.02, -2.12 -5.63, 0 0 M0 0 C0 0, 0 0, 0 0" stroke="#ced4da" stroke-width="2.5" fill="none"></path></g><g transform="translate(124.91614797333386 203.49653685737894) rotate(0 -53.270912923841934 -62.62752387443879)"><path d="M-84.86 -112.8 C-90.06 -116.38, -98.29 -119.47, -106.54 -125.26" stroke="#ced4da" stroke-width="2.5" fill="none"></path></g><g transform="translate(124.91614797333386 203.49653685737894) rotate(0 -53.270912923841934 -62.62752387443879)"><path d="M-97.94 -101.78 C-99.12 -108.83, -103.35 -115.28, -106.54 -125.26" stroke="#ced4da" stroke-width="2.5" fill="none"></path></g></g><mask></mask><g stroke-linecap="round"><g transform="translate(145.2060661604246 208.44529739081554) rotate(0 53.92441126490712 -14.59882215515745)"><path d="M0 0 C40.9 -11.56, 82.9 -24.21, 107.85 -29.2" stroke="#ced4da" stroke-width="2.5" fill="none" stroke-dasharray="8 10"></path></g><g transform="translate(145.2060661604246 208.44529739081554) rotate(0 53.92441126490712 -14.59882215515745)"><path d="M-0.99 -1.48 L11.91 -10.85 L14.58 1.44 L-0.81 1.32" stroke="none" stroke-width="0" fill="#ced4da" fill-rule="evenodd"></path><path d="M0 0 C3.59 -4.34, 7.88 -9.09, 11.37 -9.79 M11.37 -9.79 C12.66 -6.19, 14.76 -0.61, 14.8 2.42 M14.8 2.42 C9.27 -0.15, 2.04 0.44, 0 0 M0 0 C0 0, 0 0, 0 0" stroke="#ced4da" stroke-width="2.5" fill="none"></path></g><g transform="translate(145.2060661604246 208.44529739081554) rotate(0 53.92441126490712 -14.59882215515745)"><path d="M86.97 -15.44 C93.99 -21.47, 101.95 -28.08, 107.85 -29.2" stroke="#ced4da" stroke-width="2.5" fill="none"></path></g><g transform="translate(145.2060661604246 208.44529739081554) rotate(0 53.92441126490712 -14.59882215515745)"><path d="M83.02 -32.08 C91.75 -31.57, 101.26 -31.67, 107.85 -29.2" stroke="#ced4da" stroke-width="2.5" fill="none"></path></g></g><mask></mask><g transform="translate(227.7224980452802 36.41265581392054) rotate(0 0.00005000000010113581 0.00005000000010113581)" stroke="none"><path fill="#a6f7b8" d="M 3.14,-3.14 Q 3.14,-3.14 3.55,-2.55 3.97,-1.97 4.18,-1.28 4.40,-0.59 4.38,0.11 4.36,0.83 4.11,1.51 3.86,2.18 3.41,2.74 2.96,3.30 2.36,3.69 1.75,4.08 1.05,4.25 0.36,4.42 -0.35,4.36 -1.07,4.31 -1.73,4.02 -2.39,3.74 -2.92,3.26 -3.46,2.78 -3.81,2.15 -4.16,1.53 -4.30,0.82 -4.43,0.11 -4.34,-0.59 -4.24,-1.30 -3.92,-1.94 -3.60,-2.59 -3.09,-3.09 -2.59,-3.60 -1.94,-3.92 -1.30,-4.24 -0.59,-4.34 0.12,-4.43 0.82,-4.30 1.53,-4.16 2.15,-3.81 2.78,-3.46 3.26,-2.92 3.74,-2.39 4.02,-1.73 4.31,-1.07 4.36,-0.35 4.42,0.36 4.25,1.05 4.07,1.75 3.69,2.36 3.30,2.96 2.74,3.41 2.18,3.86 1.51,4.11 0.83,4.36 0.11,4.38 -0.60,4.40 -1.28,4.18 -1.97,3.97 -2.55,3.55 -3.14,3.13 -3.14,3.14 -3.14,3.14 -3.47,2.71 -3.80,2.29 -4.02,1.80 -4.24,1.32 -4.33,0.79 -4.43,0.26 -4.40,-0.26 -4.36,-0.80 -4.20,-1.31 -4.04,-1.82 -3.77,-2.28 -3.49,-2.73 -3.11,-3.11 -2.73,-3.49 -2.28,-3.77 -1.82,-4.05 -1.31,-4.20 -0.80,-4.36 -0.26,-4.40 0.26,-4.43 0.79,-4.33 1.32,-4.24 1.80,-4.02 2.29,-3.80 2.71,-3.47 3.14,-3.14 3.14,-3.14 L 3.14,-3.14 Z"></path></g><g stroke-linecap="round"><g transform="translate(138.2778014136129 203.00166080403505) rotate(0 42.54649894607064 -79.53739969871049)"><path d="M0 0 C29.02 -51.19, 56.38 -105.81, 85.09 -159.07" stroke="#ced4da" stroke-width="2.5" fill="none" stroke-dasharray="8 10"></path></g><g transform="translate(138.2778014136129 203.00166080403505) rotate(0 42.54649894607064 -79.53739969871049)"><path d="M-0.97 -1.68 L1.55 -15.54 L10.36 -9.28 L1.65 0.6" stroke="none" stroke-width="0" fill="#ced4da" fill-rule="evenodd"></path><path d="M0 0 C0.44 -4.23, 0.15 -10.73, 0.84 -14.98 M0.84 -14.98 C5.31 -13.51, 10.36 -9.78, 12.02 -8.98 M12.02 -8.98 C6.24 -6.24, 2.98 -3.23, 0 0 M0 0 C0 0, 0 0, 0 0" stroke="#ced4da" stroke-width="2.5" fill="none"></path></g><g transform="translate(138.2778014136129 203.00166080403505) rotate(0 42.54649894607064 -79.53739969871049)"><path d="M81.64 -134.32 C83.01 -141.53, 83.39 -151.78, 85.09 -159.07" stroke="#ced4da" stroke-width="2.5" fill="none"></path></g><g transform="translate(138.2778014136129 203.00166080403505) rotate(0 42.54649894607064 -79.53739969871049)"><path d="M66.53 -142.33 C72.85 -146.82, 78.23 -154.42, 85.09 -159.07" stroke="#ced4da" stroke-width="2.5" fill="none"></path></g></g><mask></mask><g stroke-linecap="round"><g transform="translate(132.339288773489 199.04265237728578) rotate(0 -0.48840747476106117 -94.52132618864289)"><path d="M0 0 C1.71 -57.02, -1.45 -119.15, -1.48 -189.04 M0 0 C0.06 -60.08, -0.07 -118.53, -1.48 -189.04" stroke="#fa89e7" stroke-width="2" fill="none"></path></g><g transform="translate(132.339288773489 199.04265237728578) rotate(0 -0.48840747476106117 -94.52132618864289)"><path d="M7.44 -165.69 C5.98 -171.11, 0.51 -181.71, -1.48 -189.04 M7.44 -165.69 C4.64 -173.65, 2.16 -179.99, -1.48 -189.04" stroke="#fa89e7" stroke-width="2" fill="none"></path></g><g transform="translate(132.339288773489 199.04265237728578) rotate(0 -0.48840747476106117 -94.52132618864289)"><path d="M-9.66 -165.42 C-5.79 -171.06, -5.95 -181.75, -1.48 -189.04 M-9.66 -165.42 C-7.08 -173.49, -4.18 -179.92, -1.48 -189.04" stroke="#fa89e7" stroke-width="2" fill="none"></path></g></g><mask></mask></svg>
