<svg version="1.1" xmlns="http://www.w3.org/2000/svg" viewBox="0 0 1130.483216052231 525.019793498398" width="1130.483216052231" height="525.019793498398"><!-- svg-source:excalidraw --><metadata></metadata><defs><style class="style-fonts">
      </style></defs><g transform="translate(79.46347345311733 392.35279907000086) rotate(0 -9.863574113394861 32.51990495567634)" stroke="none"><path fill="#a6f7b8" d="M 1.62,-1.94 Q 1.62,-1.94 2.46,-1.28 3.31,-0.62 4.35,0.06 5.39,0.76 6.25,1.55 7.12,2.33 8.22,2.24 9.31,2.15 10.64,2.63 11.97,3.12 12.73,4.05 13.48,4.99 13.73,6.05 13.98,7.11 13.78,8.63 13.57,10.16 12.84,11.14 12.10,12.12 12.91,13.28 13.72,14.43 14.18,15.42 14.63,16.41 14.75,17.91 14.87,19.42 14.47,21.28 14.06,23.14 13.27,24.15 12.47,25.17 11.41,26.46 10.35,27.74 8.79,28.60 7.23,29.45 6.07,29.57 4.92,29.69 2.71,29.15 0.51,28.60 -0.17,27.65 -0.86,26.71 -1.31,24.99 -1.75,23.27 -0.51,22.60 0.73,21.93 0.96,23.24 1.20,24.56 0.43,25.74 -0.33,26.91 -1.25,28.12 -2.17,29.33 -3.09,30.00 -4.01,30.66 -5.11,31.15 -6.22,31.64 -7.53,32.06 -8.84,32.47 -7.76,33.10 -6.69,33.72 -5.62,34.26 -4.55,34.79 -4.07,35.84 -3.59,36.89 -3.69,38.02 -3.78,39.14 -4.63,40.23 -5.48,41.32 -6.52,41.81 -7.56,42.29 -8.97,42.70 -10.39,43.10 -11.23,43.96 -12.08,44.83 -13.45,46.21 -14.83,47.59 -16.15,47.55 -17.48,47.51 -18.71,46.73 -19.94,45.94 -21.18,44.89 -22.41,43.83 -22.85,42.66 -23.30,41.49 -23.60,40.28 -23.90,39.07 -24.27,38.00 -24.64,36.93 -24.67,36.47 -24.71,36.01 -24.63,35.56 -24.55,35.11 -24.36,34.69 -24.18,34.27 -23.90,33.91 -23.62,33.55 -23.26,33.26 -22.90,32.97 -22.48,32.78 -22.06,32.59 -21.61,32.51 -21.16,32.42 -20.70,32.44 -20.25,32.47 -19.81,32.60 -19.37,32.74 -18.97,32.97 -18.58,33.20 -18.25,33.53 -17.93,33.85 -17.69,34.24 -17.45,34.63 -17.31,35.07 -17.17,35.50 -17.75,36.87 -18.34,38.23 -18.16,39.43 -17.98,40.62 -18.33,41.66 -18.68,42.69 -18.95,43.86 -19.22,45.02 -19.97,44.49 -20.73,43.95 -20.31,44.10 -19.89,44.25 -19.52,44.49 -19.15,44.73 -18.85,45.06 -18.55,45.39 -18.33,45.77 -18.11,46.16 -18.00,46.59 -17.88,47.02 -17.87,47.47 -17.86,47.91 -17.95,48.34 -18.05,48.78 -18.25,49.18 -18.44,49.58 -18.73,49.92 -19.02,50.26 -19.38,50.52 -19.74,50.78 -20.15,50.95 -20.56,51.11 -21.00,51.18 -21.44,51.24 -21.89,51.20 -22.33,51.16 -21.15,50.60 -19.97,50.05 -19.96,51.55 -19.94,53.06 -20.78,54.09 -21.62,55.13 -22.69,55.77 -23.75,56.42 -24.98,56.79 -26.20,57.17 -27.64,57.54 -29.08,57.91 -28.02,57.11 -26.96,56.31 -27.06,57.53 -27.17,58.75 -26.16,61.08 -25.15,63.42 -24.98,64.01 -24.81,64.60 -24.84,65.21 -24.87,65.82 -25.09,66.39 -25.31,66.96 -25.70,67.43 -26.10,67.90 -26.62,68.22 -27.14,68.54 -27.74,68.68 -28.34,68.81 -28.94,68.75 -29.55,68.69 -30.11,68.44 -30.67,68.18 -31.12,67.77 -31.56,67.35 -31.86,66.81 -32.15,66.27 -32.25,65.67 -32.35,65.06 -32.26,64.46 -32.16,63.85 -31.88,63.31 -31.60,62.77 -31.16,62.34 -30.72,61.92 -30.16,61.66 -29.61,61.40 -29.00,61.33 -28.39,61.25 -27.79,61.38 -27.20,61.51 -26.67,61.82 -26.14,62.13 -25.74,62.60 -25.34,63.06 -25.11,63.63 -24.88,64.19 -24.84,64.80 -24.80,65.42 -24.96,66.01 -25.12,66.60 -25.46,67.11 -25.80,67.62 -26.29,67.99 -26.77,68.36 -27.35,68.56 -27.93,68.76 -28.54,68.77 -29.15,68.77 -29.74,68.58 -30.32,68.39 -30.81,68.02 -31.30,67.66 -31.64,67.15 -31.99,66.65 -31.99,66.65 -31.99,66.65 -32.77,65.29 -33.54,63.92 -33.98,62.70 -34.41,61.47 -34.57,60.04 -34.73,58.60 -34.70,57.53 -34.67,56.45 -34.26,54.78 -33.85,53.11 -32.90,52.06 -31.94,51.00 -30.65,50.68 -29.36,50.36 -28.03,50.48 -26.70,50.61 -26.74,49.51 -26.78,48.42 -26.39,47.14 -26.00,45.86 -24.80,44.97 -23.60,44.08 -22.16,44.02 -20.73,43.95 -20.31,44.10 -19.90,44.25 -19.52,44.49 -19.15,44.73 -18.85,45.06 -18.55,45.38 -18.33,45.77 -18.11,46.16 -18.00,46.59 -17.88,47.02 -17.87,47.47 -17.86,47.91 -17.95,48.34 -18.05,48.78 -18.25,49.18 -18.44,49.58 -18.73,49.92 -19.02,50.26 -19.38,50.52 -19.74,50.78 -20.15,50.95 -20.56,51.11 -21.00,51.18 -21.44,51.24 -21.88,51.20 -22.33,51.16 -22.93,50.95 -23.54,50.74 -24.68,49.80 -25.83,48.86 -26.17,46.96 -26.52,45.05 -26.34,43.68 -26.15,42.31 -25.73,40.71 -25.30,39.10 -25.05,37.81 -24.80,36.52 -24.15,35.37 -23.49,34.21 -24.07,35.57 -24.64,36.93 -24.67,36.47 -24.71,36.02 -24.63,35.56 -24.55,35.11 -24.36,34.69 -24.18,34.27 -23.90,33.91 -23.62,33.55 -23.26,33.26 -22.90,32.98 -22.48,32.78 -22.06,32.59 -21.61,32.51 -21.16,32.42 -20.71,32.44 -20.25,32.47 -19.81,32.60 -19.37,32.74 -18.97,32.97 -18.58,33.20 -18.25,33.53 -17.93,33.85 -17.69,34.24 -17.45,34.63 -17.31,35.07 -17.17,35.50 -17.13,35.70 -17.10,35.89 -16.73,37.11 -16.36,38.32 -15.98,39.42 -15.60,40.52 -17.06,40.51 -18.52,40.50 -17.96,39.46 -17.40,38.42 -16.30,37.47 -15.21,36.52 -14.08,36.13 -12.96,35.74 -11.66,35.67 -10.36,35.60 -10.61,36.92 -10.86,38.24 -9.68,39.47 -8.50,40.69 -9.89,40.04 -11.27,39.40 -12.43,38.14 -13.59,36.89 -14.38,35.52 -15.16,34.15 -15.54,32.43 -15.93,30.71 -15.56,29.60 -15.18,28.50 -14.40,27.58 -13.62,26.66 -12.24,25.99 -10.86,25.32 -9.73,24.99 -8.60,24.67 -7.51,23.78 -6.42,22.89 -5.83,21.98 -5.24,21.06 -4.85,19.99 -4.47,18.92 -3.11,17.60 -1.75,16.28 0.34,16.50 2.44,16.72 3.25,17.79 4.06,18.86 4.69,20.01 5.31,21.16 5.79,22.81 6.27,24.46 4.74,23.39 3.22,22.32 4.27,22.47 5.33,22.61 6.04,21.61 6.74,20.61 7.19,19.45 7.64,18.29 6.95,17.17 6.25,16.05 5.78,14.86 5.32,13.67 5.30,12.52 5.28,11.37 5.73,9.98 6.18,8.59 6.88,7.75 7.58,6.92 8.32,7.75 9.05,8.59 7.88,8.41 6.70,8.23 5.26,7.59 3.83,6.94 2.99,6.09 2.16,5.24 1.07,4.30 -0.01,3.37 -0.81,2.65 -1.62,1.94 -1.83,1.72 -2.04,1.50 -2.19,1.23 -2.34,0.96 -2.42,0.67 -2.50,0.38 -2.51,0.07 -2.52,-0.22 -2.45,-0.52 -2.39,-0.82 -2.26,-1.10 -2.12,-1.37 -1.93,-1.61 -1.73,-1.84 -1.49,-2.02 -1.24,-2.20 -0.96,-2.32 -0.68,-2.44 -0.37,-2.48 -0.07,-2.53 0.22,-2.50 0.53,-2.47 0.82,-2.37 1.10,-2.27 1.36,-2.11 1.62,-1.94 1.62,-1.94 L 1.62,-1.94 Z"></path></g><g transform="translate(50.8889981427983 458.82731067057466) rotate(0 1.7933771115258423 26.601760487639694)" stroke="none"><path fill="#a6f7b8" d="M 0.49,2.48 Q 0.49,2.48 -0.52,2.72 -1.55,2.96 -2.54,3.69 -3.54,4.42 -4.47,5.03 -5.41,5.63 -6.70,6.59 -8.00,7.54 -9.06,8.35 -10.13,9.16 -11.13,9.80 -12.14,10.45 -12.41,11.74 -12.67,13.03 -12.93,14.07 -13.18,15.10 -12.59,16.28 -12.00,17.46 -11.69,18.65 -11.37,19.84 -10.51,21.08 -9.65,22.32 -8.87,23.32 -8.08,24.32 -7.47,25.36 -6.87,26.40 -5.93,26.97 -4.99,27.53 -3.81,28.25 -2.63,28.97 -1.32,29.27 -0.02,29.57 1.91,29.79 3.86,30.01 5.02,30.28 6.18,30.54 7.28,30.70 8.39,30.86 9.91,31.60 11.44,32.35 12.24,33.31 13.04,34.28 13.98,34.88 14.91,35.48 15.93,36.78 16.94,38.09 17.55,39.39 18.15,40.69 18.97,41.65 19.80,42.60 20.41,43.54 21.02,44.49 21.64,45.64 22.26,46.80 23.14,49.77 24.03,52.75 24.02,53.35 24.02,53.96 23.82,54.53 23.62,55.10 23.25,55.58 22.87,56.06 22.37,56.40 21.86,56.74 21.28,56.89 20.69,57.05 20.09,57.01 19.48,56.97 18.92,56.74 18.36,56.51 17.90,56.12 17.44,55.72 17.13,55.20 16.82,54.67 16.70,54.08 16.57,53.49 16.64,52.88 16.72,52.28 16.98,51.73 17.24,51.18 17.66,50.75 18.08,50.31 18.62,50.03 19.16,49.75 19.76,49.66 20.35,49.57 20.95,49.67 21.55,49.78 22.08,50.06 22.62,50.35 23.03,50.80 23.44,51.24 23.69,51.80 23.94,52.35 24.00,52.95 24.06,53.56 23.93,54.15 23.79,54.74 23.47,55.26 23.16,55.77 22.69,56.16 22.22,56.55 21.66,56.77 21.09,56.99 20.49,57.02 19.88,57.04 19.30,56.87 18.71,56.71 18.21,56.36 17.72,56.02 17.35,55.53 16.99,55.04 16.80,54.47 16.61,53.89 16.61,53.89 16.61,53.89 16.46,52.90 16.31,51.90 15.87,50.80 15.44,49.71 14.67,48.43 13.91,47.16 13.14,46.31 12.38,45.46 11.79,44.36 11.20,43.25 10.38,41.92 9.56,40.60 8.53,39.29 7.49,37.98 6.39,37.79 5.30,37.60 3.39,37.24 1.47,36.89 -0.52,36.77 -2.52,36.65 -4.11,36.21 -5.70,35.77 -6.74,35.25 -7.79,34.73 -8.91,33.88 -10.03,33.02 -10.87,32.24 -11.72,31.46 -12.66,30.36 -13.59,29.26 -14.31,28.38 -15.02,27.51 -15.92,26.25 -16.82,24.98 -17.41,23.80 -18.01,22.62 -18.28,21.48 -18.55,20.33 -19.17,19.38 -19.80,18.42 -20.03,17.22 -20.27,16.02 -20.16,14.65 -20.04,13.29 -19.71,11.99 -19.38,10.69 -18.99,9.12 -18.59,7.56 -17.89,6.72 -17.19,5.88 -16.03,5.13 -14.88,4.38 -13.94,3.84 -13.01,3.31 -12.02,2.57 -11.03,1.84 -9.84,1.12 -8.65,0.40 -7.64,0.00 -6.63,-0.38 -5.76,-1.01 -4.90,-1.65 -3.73,-1.89 -2.57,-2.14 -1.53,-2.31 -0.49,-2.48 -0.19,-2.50 0.11,-2.53 0.41,-2.48 0.71,-2.43 0.99,-2.31 1.27,-2.19 1.52,-2.00 1.76,-1.82 1.95,-1.58 2.14,-1.34 2.27,-1.06 2.40,-0.79 2.46,-0.49 2.52,-0.19 2.51,0.11 2.50,0.41 2.41,0.71 2.32,1.00 2.17,1.26 2.02,1.53 1.80,1.75 1.59,1.97 1.33,2.13 1.07,2.29 0.78,2.39 0.49,2.48 0.49,2.48 L 0.49,2.48 Z"></path></g><g transform="translate(91.6584378114967 510.5961299566329) rotate(0 20.08582364909398 -32.400346481574616)" stroke="none"><path fill="#a6f7b8" d="M -1.80,-1.80 Q -1.80,-1.80 -1.14,-2.52 -0.48,-3.23 0.46,-4.54 1.40,-5.86 2.12,-6.75 2.83,-7.65 3.41,-8.55 3.99,-9.45 4.81,-10.20 5.64,-10.94 6.49,-11.63 7.34,-12.32 8.48,-12.78 9.62,-13.24 10.25,-15.07 10.88,-16.89 11.34,-18.00 11.80,-19.12 12.23,-20.25 12.66,-21.38 13.22,-22.63 13.78,-23.87 14.44,-24.81 15.10,-25.75 16.16,-26.53 17.23,-27.32 18.15,-27.87 19.06,-28.42 19.45,-29.62 19.83,-30.83 20.98,-29.57 22.13,-28.30 20.97,-27.93 19.81,-27.55 18.65,-27.78 17.49,-28.00 16.89,-27.92 16.29,-27.84 15.84,-27.87 15.38,-27.89 14.95,-28.03 14.51,-28.16 14.12,-28.40 13.73,-28.63 13.41,-28.95 13.08,-29.28 12.85,-29.67 12.61,-30.06 12.48,-30.49 12.34,-30.93 12.31,-31.38 12.28,-31.84 12.36,-32.28 12.45,-32.73 12.63,-33.15 12.82,-33.56 13.10,-33.92 13.38,-34.28 13.74,-34.56 14.10,-34.85 14.51,-35.03 14.93,-35.22 15.37,-35.30 15.82,-35.39 14.76,-34.98 13.70,-34.57 14.87,-35.20 16.05,-35.84 16.95,-36.55 17.85,-37.25 18.34,-38.54 18.83,-39.82 19.44,-40.86 20.06,-41.90 20.65,-42.87 21.24,-43.84 21.66,-44.87 22.08,-45.90 22.80,-47.29 23.52,-48.67 22.43,-48.46 21.34,-48.25 20.36,-48.14 19.38,-48.03 18.93,-48.04 18.47,-48.05 18.03,-48.17 17.59,-48.29 17.20,-48.51 16.80,-48.72 16.46,-49.03 16.13,-49.34 15.88,-49.72 15.63,-50.10 15.48,-50.53 15.32,-50.96 15.28,-51.41 15.23,-51.86 15.30,-52.31 15.36,-52.76 15.53,-53.18 15.70,-53.60 15.97,-53.97 16.23,-54.34 16.58,-54.63 16.92,-54.93 17.33,-55.13 17.74,-55.33 18.18,-55.43 18.62,-55.53 20.09,-55.79 21.56,-56.04 23.35,-56.39 25.14,-56.74 26.24,-57.09 27.33,-57.45 28.47,-57.57 29.61,-57.69 30.71,-57.70 31.82,-57.72 33.41,-57.50 35.00,-57.29 36.50,-55.77 38.01,-54.26 38.59,-53.15 39.18,-52.05 37.64,-51.35 36.10,-50.66 35.76,-51.70 35.41,-52.75 35.40,-54.10 35.38,-55.46 35.25,-56.95 35.12,-58.44 35.12,-59.79 35.11,-61.13 35.84,-63.54 36.56,-65.95 36.84,-66.50 37.12,-67.04 37.56,-67.47 38.00,-67.90 38.55,-68.16 39.10,-68.43 39.71,-68.50 40.32,-68.58 40.92,-68.45 41.52,-68.33 42.05,-68.02 42.58,-67.71 42.98,-67.25 43.38,-66.79 43.62,-66.23 43.85,-65.66 43.89,-65.05 43.93,-64.44 43.78,-63.85 43.62,-63.25 43.29,-62.74 42.95,-62.23 42.47,-61.85 41.98,-61.48 41.41,-61.27 40.83,-61.07 40.22,-61.06 39.61,-61.05 39.02,-61.24 38.44,-61.43 37.95,-61.79 37.46,-62.16 37.10,-62.66 36.75,-63.16 36.58,-63.75 36.41,-64.34 36.44,-64.95 36.46,-65.56 36.68,-66.13 36.90,-66.70 37.29,-67.17 37.68,-67.65 38.20,-67.97 38.72,-68.29 39.31,-68.43 39.91,-68.57 40.52,-68.51 41.13,-68.45 41.69,-68.21 42.25,-67.96 42.70,-67.54 43.15,-67.13 43.44,-66.59 43.74,-66.05 43.84,-65.45 43.95,-64.85 43.86,-64.24 43.77,-63.64 43.77,-63.64 43.77,-63.64 43.12,-61.86 42.47,-60.08 42.44,-58.99 42.41,-57.89 42.61,-56.69 42.81,-55.49 42.83,-54.27 42.84,-53.06 42.95,-51.54 43.06,-50.03 42.74,-48.45 42.41,-46.86 40.60,-45.75 38.80,-44.63 37.73,-44.76 36.67,-44.89 35.22,-45.72 33.77,-46.55 33.10,-47.69 32.43,-48.82 31.68,-49.59 30.94,-50.37 29.57,-50.37 28.20,-50.38 26.65,-49.90 25.11,-49.42 23.93,-49.08 22.76,-48.74 21.07,-48.39 19.38,-48.03 18.93,-48.04 18.47,-48.05 18.03,-48.17 17.59,-48.29 17.20,-48.50 16.80,-48.72 16.46,-49.03 16.13,-49.34 15.88,-49.72 15.63,-50.10 15.48,-50.53 15.32,-50.96 15.28,-51.41 15.23,-51.86 15.30,-52.31 15.36,-52.76 15.53,-53.18 15.70,-53.60 15.97,-53.97 16.23,-54.34 16.58,-54.63 16.92,-54.93 17.33,-55.13 17.74,-55.33 18.18,-55.43 18.62,-55.53 19.62,-55.65 20.61,-55.77 21.95,-55.78 23.30,-55.80 24.35,-55.57 25.39,-55.34 26.52,-55.03 27.65,-54.72 29.03,-53.56 30.42,-52.41 30.75,-50.65 31.09,-48.89 30.85,-47.71 30.61,-46.54 29.92,-45.02 29.24,-43.51 28.78,-42.34 28.33,-41.16 27.75,-40.05 27.17,-38.93 26.37,-37.72 25.57,-36.50 24.95,-35.18 24.32,-33.86 23.37,-32.53 22.41,-31.20 21.50,-30.47 20.58,-29.74 19.54,-29.24 18.50,-28.73 17.40,-28.29 16.29,-27.84 15.84,-27.87 15.38,-27.89 14.95,-28.03 14.51,-28.16 14.12,-28.40 13.73,-28.63 13.41,-28.95 13.08,-29.28 12.85,-29.67 12.61,-30.06 12.48,-30.49 12.34,-30.93 12.31,-31.38 12.28,-31.83 12.36,-32.28 12.45,-32.73 12.63,-33.15 12.82,-33.56 13.10,-33.92 13.38,-34.28 13.74,-34.56 14.10,-34.85 14.51,-35.03 14.93,-35.22 15.37,-35.30 15.82,-35.39 16.77,-35.46 17.71,-35.53 18.83,-35.30 19.94,-35.07 21.05,-35.07 22.16,-35.06 23.80,-34.47 25.44,-33.88 26.40,-31.56 27.35,-29.23 26.80,-28.02 26.25,-26.81 25.68,-25.54 25.12,-24.28 23.90,-23.11 22.68,-21.94 21.59,-21.35 20.49,-20.75 19.98,-19.68 19.47,-18.62 18.99,-17.39 18.51,-16.17 18.01,-15.00 17.52,-13.83 16.92,-12.82 16.31,-11.82 15.84,-10.73 15.37,-9.63 14.41,-8.54 13.46,-7.45 12.10,-6.97 10.74,-6.49 9.80,-5.93 8.85,-5.38 8.01,-4.35 7.18,-3.32 6.28,-2.61 5.38,-1.89 4.30,-0.70 3.23,0.48 2.52,1.14 1.80,1.80 1.56,1.99 1.32,2.18 1.04,2.31 0.76,2.44 0.45,2.49 0.15,2.55 -0.15,2.53 -0.46,2.51 -0.75,2.42 -1.04,2.33 -1.31,2.17 -1.57,2.01 -1.79,1.79 -2.01,1.57 -2.17,1.31 -2.33,1.04 -2.42,0.75 -2.51,0.46 -2.53,0.15 -2.55,-0.15 -2.49,-0.45 -2.44,-0.76 -2.31,-1.04 -2.18,-1.32 -1.99,-1.56 -1.80,-1.80 -1.80,-1.80 L -1.80,-1.80 Z"></path></g><g transform="translate(89.74550222586731 460.3815708338975) rotate(0 -14.645913077464684 -8.010417764817248)" stroke="none"><path fill="#a6f7b8" d="M -0.11,-2.54 Q -0.11,-2.54 0.63,-2.62 1.37,-2.70 2.30,-3.41 3.23,-4.12 2.80,-3.10 2.36,-2.07 1.20,-1.62 0.03,-1.16 -1.13,-0.88 -2.29,-0.59 -3.36,-0.23 -4.42,0.13 -5.48,-0.06 -6.54,-0.25 -7.67,-1.16 -8.80,-2.07 -9.85,-3.30 -10.90,-4.53 -11.59,-5.62 -12.28,-6.71 -13.02,-7.73 -13.77,-8.75 -14.52,-9.69 -15.28,-10.64 -15.99,-11.49 -16.70,-12.35 -15.66,-12.02 -14.63,-11.69 -13.85,-10.28 -13.08,-8.86 -12.96,-7.76 -12.83,-6.65 -13.46,-5.05 -14.08,-3.45 -15.45,-2.64 -16.82,-1.84 -18.02,-1.51 -19.21,-1.17 -20.59,-1.43 -21.97,-1.69 -23.23,-2.19 -24.48,-2.70 -25.59,-3.65 -26.70,-4.60 -27.33,-5.50 -27.96,-6.41 -28.47,-7.35 -28.98,-8.29 -27.95,-7.54 -26.92,-6.79 -27.89,-6.06 -28.85,-5.34 -29.75,-4.65 -30.64,-3.96 -31.61,-2.42 -32.57,-0.89 -33.07,-0.53 -33.57,-0.17 -34.16,0.00 -34.75,0.18 -35.37,0.16 -35.98,0.15 -36.56,-0.06 -37.14,-0.27 -37.62,-0.65 -38.10,-1.04 -38.43,-1.56 -38.76,-2.08 -38.91,-2.68 -39.06,-3.27 -39.01,-3.89 -38.96,-4.50 -38.71,-5.07 -38.47,-5.63 -38.06,-6.09 -37.65,-6.55 -37.11,-6.85 -36.58,-7.16 -35.97,-7.27 -35.37,-7.39 -34.76,-7.30 -34.15,-7.22 -33.59,-6.95 -33.04,-6.67 -32.61,-6.24 -32.17,-5.80 -31.90,-5.25 -31.63,-4.70 -31.54,-4.09 -31.46,-3.48 -31.58,-2.87 -31.69,-2.27 -32.00,-1.73 -32.30,-1.20 -32.76,-0.78 -33.22,-0.37 -33.78,-0.13 -34.35,0.10 -34.96,0.15 -35.58,0.20 -36.17,0.05 -36.77,-0.09 -37.29,-0.42 -37.81,-0.75 -38.19,-1.23 -38.58,-1.71 -38.79,-2.29 -39.00,-2.87 -39.02,-3.48 -39.04,-4.10 -38.86,-4.69 -38.67,-5.28 -38.31,-5.78 -37.95,-6.28 -37.96,-6.27 -37.96,-6.27 -36.65,-8.10 -35.34,-9.93 -34.40,-10.67 -33.46,-11.40 -32.52,-12.06 -31.58,-12.71 -30.52,-13.13 -29.45,-13.55 -27.47,-13.88 -25.49,-14.21 -24.38,-13.63 -23.26,-13.05 -22.36,-11.56 -21.46,-10.07 -20.58,-9.28 -19.70,-8.49 -19.80,-7.21 -19.90,-5.92 -20.69,-7.28 -21.48,-8.63 -21.99,-9.73 -22.51,-10.84 -22.59,-12.29 -22.67,-13.73 -22.25,-14.82 -21.82,-15.90 -21.12,-16.86 -20.43,-17.82 -19.58,-18.51 -18.74,-19.20 -17.10,-19.48 -15.45,-19.76 -14.01,-19.07 -12.57,-18.38 -11.40,-17.27 -10.22,-16.16 -9.46,-15.31 -8.70,-14.46 -7.80,-13.15 -6.91,-11.84 -6.20,-10.70 -5.48,-9.55 -4.87,-8.43 -4.26,-7.31 -3.49,-6.46 -2.71,-5.62 -3.83,-6.25 -4.94,-6.88 -3.28,-7.37 -1.62,-7.86 -0.47,-8.21 0.68,-8.56 1.97,-8.75 3.27,-8.94 5.08,-8.69 6.90,-8.44 7.78,-7.57 8.67,-6.71 8.88,-5.26 9.09,-3.81 8.72,-2.51 8.36,-1.22 7.22,-0.09 6.09,1.04 4.91,1.59 3.74,2.14 2.69,2.35 1.64,2.56 0.88,2.55 0.11,2.54 -0.19,2.52 -0.49,2.50 -0.78,2.40 -1.08,2.30 -1.34,2.14 -1.60,1.98 -1.81,1.76 -2.03,1.54 -2.18,1.27 -2.34,1.01 -2.42,0.71 -2.51,0.42 -2.52,0.11 -2.54,-0.19 -2.48,-0.49 -2.42,-0.79 -2.29,-1.07 -2.16,-1.35 -1.96,-1.59 -1.77,-1.82 -1.53,-2.01 -1.28,-2.20 -1.00,-2.32 -0.72,-2.44 -0.41,-2.49 -0.11,-2.54 -0.11,-2.54 L -0.11,-2.54 Z"></path></g><g transform="translate(59.25809132992072 457.631725929557) rotate(0 15.602380870278466 2.630286430238584)" stroke="none"><path fill="#a6f7b8" d="M 0,-2.49 Q 0,-2.49 1.54,-2.47 3.09,-2.45 4.30,-2.54 5.52,-2.62 6.56,-2.40 7.60,-2.17 8.85,-1.54 10.10,-0.92 11.18,-0.23 12.27,0.45 13.03,1.22 13.80,1.98 14.92,1.90 16.05,1.83 17.39,1.53 18.74,1.24 19.97,1.18 21.19,1.11 22.46,0.96 23.72,0.81 25.02,0.58 26.33,0.35 27.82,-0.14 29.32,-0.63 29.87,-0.85 30.42,-1.06 31.01,-1.10 31.61,-1.13 32.18,-0.97 32.75,-0.81 33.24,-0.47 33.73,-0.14 34.08,0.33 34.44,0.80 34.63,1.36 34.82,1.92 34.82,2.52 34.81,3.11 34.62,3.67 34.43,4.23 34.07,4.70 33.71,5.17 33.22,5.50 32.73,5.84 32.16,5.99 31.59,6.15 30.99,6.12 30.40,6.08 29.85,5.86 29.30,5.64 28.85,5.25 28.40,4.87 28.10,4.36 27.79,3.85 27.67,3.27 27.54,2.69 27.61,2.10 27.67,1.51 27.92,0.98 28.17,0.44 28.58,0.01 28.99,-0.41 29.52,-0.68 30.04,-0.96 30.63,-1.05 31.21,-1.15 31.80,-1.05 32.38,-0.95 32.90,-0.67 33.43,-0.39 33.83,0.03 34.24,0.46 34.49,1.00 34.73,1.54 34.80,2.13 34.86,2.72 34.73,3.29 34.60,3.87 34.29,4.38 33.98,4.89 33.53,5.27 33.08,5.65 33.08,5.65 33.08,5.65 31.47,6.25 29.87,6.84 28.22,7.16 26.56,7.48 25.48,7.70 24.40,7.92 23.25,8.07 22.10,8.22 20.94,8.19 19.78,8.16 18.51,8.32 17.24,8.47 16.12,8.53 15.00,8.59 13.86,8.42 12.72,8.24 11.23,7.54 9.74,6.83 8.79,5.80 7.84,4.77 6.68,3.70 5.52,2.62 4.30,2.54 3.09,2.45 1.54,2.47 0,2.49 -0.29,2.45 -0.59,2.41 -0.87,2.31 -1.15,2.20 -1.40,2.03 -1.65,1.86 -1.85,1.64 -2.05,1.41 -2.19,1.14 -2.33,0.88 -2.40,0.59 -2.47,0.30 -2.47,-0.00 -2.47,-0.30 -2.40,-0.59 -2.33,-0.88 -2.19,-1.14 -2.05,-1.41 -1.85,-1.64 -1.65,-1.86 -1.40,-2.03 -1.15,-2.20 -0.87,-2.31 -0.59,-2.41 -0.29,-2.45 0.00,-2.49 0.00,-2.49 L 0,-2.49 Z"></path></g><g transform="translate(19.445119454037922 424.75314555157547) rotate(0 22.835668553434516 -14.107899944006704)" stroke="none"><path fill="#a6f7b8" d="M -1.04,-2.36 Q -1.04,-2.36 -0.19,-2.77 0.64,-3.19 1.90,-3.95 3.16,-4.72 4.41,-5.38 5.66,-6.03 7.03,-6.25 8.40,-6.47 9.80,-5.38 11.19,-4.29 11.45,-3.13 11.71,-1.96 9.72,-2.89 7.73,-3.82 6.63,-2.68 5.53,-1.55 6.04,-2.69 6.56,-3.84 7.00,-4.99 7.45,-6.13 8.03,-7.22 8.61,-8.30 9.26,-9.18 9.92,-10.05 11.46,-11.51 13.00,-12.97 14.25,-14.06 15.51,-15.16 16.85,-15.92 18.19,-16.68 19.41,-16.87 20.63,-17.05 22.55,-16.43 24.48,-15.80 24.97,-14.76 25.45,-13.72 25.65,-12.53 25.84,-11.33 24.85,-11.82 23.86,-12.32 24.49,-13.36 25.12,-14.41 26.25,-14.99 27.37,-15.57 28.70,-15.91 30.03,-16.26 31.30,-16.35 32.57,-16.44 33.88,-16.73 35.18,-17.02 36.24,-17.52 37.29,-18.01 38.31,-18.64 39.34,-19.27 40.23,-19.85 41.12,-20.43 41.62,-21.50 42.12,-22.56 41.03,-23.02 39.94,-23.48 39.17,-27.07 38.40,-30.67 38.87,-31.07 39.34,-31.48 39.92,-31.72 40.49,-31.96 41.11,-32.00 41.73,-32.04 42.33,-31.88 42.94,-31.72 43.45,-31.38 43.97,-31.03 44.36,-30.54 44.74,-30.05 44.94,-29.46 45.15,-28.88 45.16,-28.25 45.16,-27.63 44.97,-27.04 44.78,-26.45 44.41,-25.95 44.04,-25.45 43.53,-25.10 43.02,-24.74 42.42,-24.57 41.82,-24.39 41.20,-24.42 40.58,-24.45 40.00,-24.67 39.42,-24.89 38.94,-25.29 38.46,-25.69 38.13,-26.22 37.81,-26.75 37.67,-27.35 37.53,-27.96 37.59,-28.58 37.65,-29.20 37.90,-29.76 38.16,-30.33 38.58,-30.79 39.00,-31.24 39.55,-31.54 40.09,-31.84 40.71,-31.95 41.32,-32.06 41.93,-31.96 42.55,-31.87 43.10,-31.58 43.65,-31.30 44.09,-30.85 44.52,-30.40 44.79,-29.84 45.05,-29.28 45.13,-28.66 45.20,-28.05 45.08,-27.44 44.95,-26.83 44.64,-26.29 44.32,-25.76 44.32,-25.76 44.32,-25.76 44.95,-27.18 45.58,-28.60 46.46,-27.54 47.34,-26.48 48.24,-25.26 49.14,-24.04 49.27,-22.37 49.40,-20.70 49.04,-19.52 48.69,-18.34 48.04,-17.31 47.40,-16.28 46.49,-15.28 45.58,-14.29 44.48,-13.58 43.39,-12.87 42.31,-12.20 41.24,-11.53 39.88,-10.85 38.52,-10.18 36.90,-9.78 35.29,-9.37 33.69,-9.13 32.09,-8.89 30.66,-8.49 29.23,-8.08 28.19,-7.40 27.16,-6.72 26.09,-6.17 25.02,-5.62 23.76,-5.41 22.50,-5.19 21.18,-6.08 19.85,-6.98 19.38,-9.06 18.90,-11.15 20.44,-10.74 21.98,-10.33 20.63,-9.73 19.28,-9.12 18.29,-8.21 17.30,-7.29 16.33,-6.35 15.36,-5.40 14.55,-4.32 13.74,-3.24 13.21,-2.30 12.68,-1.36 12.09,-0.22 11.49,0.91 10.43,1.62 9.38,2.32 7.44,0.41 5.50,-1.50 6.63,-0.97 7.76,-0.45 6.40,0.14 5.04,0.74 3.91,1.21 2.78,1.67 1.91,2.02 1.04,2.36 0.74,2.45 0.44,2.54 0.13,2.56 -0.17,2.57 -0.48,2.51 -0.78,2.45 -1.07,2.32 -1.35,2.19 -1.59,2.00 -1.84,1.81 -2.03,1.56 -2.22,1.31 -2.34,1.03 -2.47,0.74 -2.52,0.44 -2.58,0.13 -2.55,-0.17 -2.53,-0.48 -2.44,-0.78 -2.34,-1.08 -2.18,-1.34 -2.02,-1.61 -1.79,-1.82 -1.57,-2.04 -1.30,-2.20 -1.04,-2.36 -1.04,-2.36 L -1.04,-2.36 Z"></path></g><g transform="translate(106.48368860011215 502.46615371771395) rotate(0 3.40741651190001 -3.6465334601034556)" stroke="none"><path fill="#a6f7b8" d="M -1.95,-1.64 Q -1.95,-1.64 -1.44,-2.32 -0.92,-3.00 0.01,-4.20 0.95,-5.39 1.91,-6.31 2.87,-7.23 3.45,-7.95 4.03,-8.66 4.33,-9.07 4.62,-9.48 5.02,-9.77 5.43,-10.06 5.91,-10.21 6.39,-10.36 6.89,-10.34 7.39,-10.33 7.86,-10.16 8.33,-9.99 8.72,-9.67 9.11,-9.36 9.38,-8.94 9.65,-8.52 9.78,-8.03 9.90,-7.54 9.86,-7.04 9.82,-6.54 9.62,-6.08 9.42,-5.62 9.09,-5.25 8.75,-4.88 8.32,-4.63 7.88,-4.38 7.39,-4.29 6.90,-4.19 6.40,-4.26 5.90,-4.33 5.45,-4.55 5.01,-4.77 4.65,-5.12 4.30,-5.48 4.07,-5.93 3.85,-6.38 3.78,-6.87 3.71,-7.37 3.81,-7.86 3.90,-8.35 4.15,-8.79 4.39,-9.23 4.77,-9.56 5.14,-9.90 5.60,-10.09 6.06,-10.29 6.56,-10.33 7.06,-10.38 7.54,-10.26 8.03,-10.13 8.45,-9.87 8.88,-9.60 9.19,-9.21 9.50,-8.82 9.68,-8.35 9.85,-7.87 9.87,-7.37 9.88,-6.87 9.73,-6.39 9.59,-5.91 9.59,-5.92 9.59,-5.92 8.08,-4.18 6.57,-2.45 5.60,-1.77 4.63,-1.10 3.87,-0.35 3.12,0.39 2.54,1.02 1.95,1.64 1.73,1.85 1.50,2.06 1.23,2.21 0.96,2.36 0.66,2.45 0.37,2.53 0.06,2.53 -0.24,2.54 -0.54,2.48 -0.84,2.41 -1.12,2.27 -1.40,2.14 -1.63,1.94 -1.87,1.74 -2.05,1.49 -2.23,1.24 -2.35,0.96 -2.46,0.67 -2.51,0.36 -2.55,0.06 -2.52,-0.24 -2.49,-0.55 -2.39,-0.84 -2.29,-1.13 -2.12,-1.39 -1.95,-1.64 -1.95,-1.64 L -1.95,-1.64 Z"></path></g><g transform="translate(53.28016762483276 430.9701862048664) rotate(0 -0.17933771115258423 0.8369093187122871)" stroke="none"><path fill="#a6f7b8" d="M 2.26,0.48 Q 2.26,0.48 2.13,1.33 1.99,2.17 1.85,2.54 1.71,2.90 1.46,3.20 1.20,3.49 0.87,3.70 0.54,3.90 0.16,3.99 -0.21,4.07 -0.60,4.03 -0.98,3.99 -1.34,3.83 -1.69,3.67 -1.98,3.40 -2.26,3.14 -2.45,2.79 -2.63,2.45 -2.70,2.07 -2.76,1.68 -2.70,1.30 -2.64,0.91 -2.46,0.57 -2.28,0.22 -2.00,-0.04 -1.72,-0.31 -1.36,-0.47 -1.01,-0.64 -0.62,-0.68 -0.24,-0.73 0.13,-0.64 0.52,-0.56 0.85,-0.36 1.18,-0.16 1.44,0.12 1.69,0.42 1.84,0.78 1.98,1.14 2.01,1.53 2.03,1.92 1.93,2.29 1.83,2.67 1.61,2.99 1.39,3.31 1.08,3.55 0.78,3.79 0.41,3.92 0.04,4.04 -0.34,4.04 -0.73,4.05 -1.10,3.92 -1.47,3.80 -1.78,3.57 -2.09,3.33 -2.31,3.01 -2.53,2.69 -2.64,2.32 -2.75,1.94 -2.73,1.55 -2.71,1.16 -2.71,1.16 -2.71,1.16 -2.49,0.34 -2.26,-0.48 -2.17,-0.75 -2.08,-1.01 -1.93,-1.25 -1.78,-1.48 -1.58,-1.67 -1.37,-1.86 -1.13,-2.00 -0.88,-2.14 -0.61,-2.21 -0.35,-2.29 -0.07,-2.30 0.20,-2.31 0.48,-2.25 0.75,-2.19 1.00,-2.07 1.25,-1.94 1.47,-1.77 1.68,-1.59 1.85,-1.36 2.02,-1.14 2.12,-0.88 2.23,-0.62 2.27,-0.34 2.32,-0.07 2.29,0.20 2.26,0.48 2.26,0.48 L 2.26,0.48 Z"></path></g><g transform="translate(51.00855661690002 418.8947803205897) rotate(0 2.152052533831011 -0.8369093187122871)" stroke="none"><path fill="#a6f7b8" d="M -1.41,-1.97 Q -1.41,-1.97 -0.96,-2.36 -0.50,-2.74 0.56,-3.33 1.64,-3.92 4.17,-2.75 6.71,-1.58 6.84,-1.16 6.97,-0.75 6.97,-0.31 6.96,0.12 6.81,0.53 6.67,0.94 6.40,1.29 6.13,1.63 5.76,1.87 5.39,2.11 4.97,2.22 4.55,2.33 4.11,2.30 3.67,2.27 3.27,2.10 2.87,1.93 2.54,1.64 2.21,1.35 1.99,0.97 1.77,0.59 1.68,0.17 1.60,-0.25 1.65,-0.69 1.71,-1.12 1.90,-1.51 2.09,-1.91 2.39,-2.22 2.70,-2.53 3.09,-2.73 3.48,-2.93 3.91,-2.99 4.34,-3.06 4.78,-2.98 5.21,-2.90 5.59,-2.69 5.97,-2.48 6.27,-2.16 6.56,-1.83 6.74,-1.43 6.92,-1.03 6.96,-0.60 7.00,-0.16 6.89,0.25 6.79,0.68 6.56,1.05 6.33,1.42 5.99,1.70 5.65,1.98 5.24,2.13 4.84,2.29 4.40,2.30 3.96,2.32 3.54,2.19 3.12,2.07 2.76,1.82 2.41,1.57 2.15,1.21 1.89,0.86 1.89,0.86 1.89,0.86 2.16,1.12 2.43,1.37 1.92,1.67 1.41,1.97 1.15,2.11 0.89,2.25 0.61,2.33 0.33,2.40 0.03,2.41 -0.25,2.41 -0.54,2.35 -0.82,2.28 -1.08,2.15 -1.34,2.02 -1.57,1.83 -1.79,1.64 -1.96,1.40 -2.13,1.16 -2.24,0.89 -2.35,0.61 -2.39,0.32 -2.43,0.03 -2.40,-0.25 -2.37,-0.54 -2.27,-0.81 -2.17,-1.09 -2.00,-1.33 -1.84,-1.58 -1.62,-1.78 -1.41,-1.97 -1.41,-1.97 L -1.41,-1.97 Z"></path></g><g stroke-linecap="round" transform="translate(10 390.3203050102711) rotate(0 62.34974424406391 62.34974424406346)"><path d="M19.39 18.21 C25.33 10.79, 35.35 5.88, 44.15 2.91 C52.96 -0.06, 62.63 -1.42, 72.21 0.41 C81.79 2.23, 93.56 7.61, 101.64 13.85 C109.73 20.08, 116.79 29.13, 120.72 37.82 C124.65 46.51, 125.78 56.73, 125.25 66.01 C124.71 75.29, 122.64 85.6, 117.51 93.5 C112.39 101.4, 103.18 108.42, 94.49 113.39 C85.81 118.36, 74.73 122.6, 65.38 123.32 C56.04 124.04, 47.09 121.38, 38.41 117.69 C29.73 113.99, 19.76 108.19, 13.3 101.17 C6.84 94.15, 1.59 85.11, -0.35 75.55 C-2.29 65.99, -1.88 53.66, 1.66 43.81 C5.2 33.96, 16.59 21.41, 20.88 16.44 C25.16 11.48, 26.4 13.6, 27.35 14.02 M56.61 0.51 C65.29 -0.81, 73.2 3.3, 81.63 6.96 C90.06 10.61, 100.45 15.25, 107.19 22.42 C113.93 29.59, 119.68 41.01, 122.07 49.99 C124.46 58.97, 123.6 67.49, 121.54 76.31 C119.49 85.13, 115.63 95.52, 109.74 102.91 C103.86 110.29, 95.71 117.29, 86.23 120.63 C76.76 123.97, 62.39 123.77, 52.89 122.97 C43.39 122.18, 37.31 120.73, 29.23 115.86 C21.15 110.99, 9.22 103.06, 4.41 93.74 C-0.4 84.43, 0.04 70.34, 0.38 59.97 C0.72 49.6, 2.26 39.78, 6.43 31.52 C10.61 23.25, 17.88 15.63, 25.42 10.37 C32.96 5.1, 47.05 0.9, 51.69 -0.09 C56.34 -1.08, 52.42 3.15, 53.28 4.41" stroke="#a6f7b8" stroke-width="4" fill="none"></path></g><g stroke-linecap="round" transform="translate(101.66964538427237 214.64992615162237) rotate(0 19.40113872236907 19.40113872236907)"><path d="M17.38 -0.34 C21.39 -1.17, 27.09 0.12, 30.4 2.35 C33.72 4.58, 35.94 8.89, 37.28 13.05 C38.61 17.2, 39.85 23.38, 38.41 27.26 C36.98 31.15, 32.44 34.5, 28.68 36.36 C24.92 38.22, 19.93 39.25, 15.85 38.41 C11.78 37.57, 6.82 34.52, 4.22 31.34 C1.61 28.16, 0 23.51, 0.23 19.33 C0.46 15.15, 2.62 9.35, 5.57 6.28 C8.52 3.2, 15.67 1.73, 17.92 0.87 C20.17 0, 19.22 0.81, 19.07 1.07 M21.78 -0.9 C25.62 -0.44, 29.76 4.27, 32.81 7.39 C35.87 10.51, 39.86 13.81, 40.11 17.83 C40.37 21.84, 37.1 28.03, 34.35 31.48 C31.6 34.92, 27.67 37.62, 23.61 38.48 C19.55 39.34, 13.57 38.68, 9.99 36.64 C6.41 34.6, 3.5 30.09, 2.13 26.24 C0.76 22.4, 0.83 17.61, 1.75 13.58 C2.67 9.54, 4.1 4.46, 7.65 2.04 C11.19 -0.39, 20.74 -0.85, 23 -0.96 C25.26 -1.08, 21.33 0.98, 21.21 1.34" stroke="#ced4da" stroke-width="4" fill="none"></path></g><g stroke-linecap="round"><g transform="translate(912.9714953465991 191.88509503343312) rotate(0 13.924709940221874 -55.158968323504496)"><path d="M1.54 2.14 C4.39 7.76, 7.24 26.2, 19.23 31.42 C31.22 36.65, 56.99 38.17, 73.47 33.5 C89.96 28.83, 106.61 18.98, 118.14 3.43 C129.68 -12.12, 139.69 -42.68, 142.69 -59.78 C145.69 -76.89, 143.39 -86.17, 136.15 -99.2 C128.91 -112.24, 115.91 -130.6, 99.25 -137.98 C82.59 -145.36, 56.65 -145.55, 36.17 -143.49 C15.68 -141.42, -4.39 -135.21, -23.67 -125.57 C-42.95 -115.93, -64.38 -100.23, -79.51 -85.66 C-94.63 -71.1, -108.23 -58.31, -114.43 -38.2 C-120.63 -18.1, -115.86 22.99, -116.7 34.97 M-1.07 0.83 C1.29 7.01, 5.11 29.56, 17.43 34.24 C29.75 38.92, 55.79 33.53, 72.84 28.93 C89.88 24.32, 107.35 21.2, 119.68 6.62 C132.01 -7.96, 143.76 -40.61, 146.83 -58.56 C149.89 -76.5, 145.79 -87.46, 138.08 -101.06 C130.38 -114.65, 116.7 -132.83, 100.62 -140.11 C84.53 -147.4, 62.91 -147.95, 41.6 -144.75 C20.28 -141.56, -7.19 -131.84, -27.28 -120.93 C-47.37 -110.02, -64.3 -93.3, -78.95 -79.29 C-93.6 -65.27, -108.32 -55.61, -115.17 -36.83 C-122.01 -18.05, -119.13 20.74, -120 33.39" stroke="#fa89e7" stroke-width="4" fill="none"></path></g></g><mask></mask><g stroke-linecap="round"><g transform="translate(974.5859693890452 250.72465750746142) rotate(176.81647326412786 15.595643515675874 -53.358208501966374)"><path d="M-2.48 -0.98 C1.24 5.28, 8.47 29.92, 20.33 35.61 C32.2 41.3, 52.26 38.45, 68.7 33.16 C85.15 27.87, 106.77 19.32, 119 3.88 C131.23 -11.56, 138.77 -42.57, 142.08 -59.48 C145.4 -76.4, 145.74 -84.02, 138.87 -97.62 C132 -111.21, 117.37 -133.61, 100.87 -141.05 C84.36 -148.49, 60.83 -144.79, 39.82 -142.27 C18.81 -139.74, -5.53 -135.71, -25.22 -125.91 C-44.9 -116.12, -63.61 -98.55, -78.3 -83.5 C-92.98 -68.45, -106.81 -55.29, -113.35 -35.6 C-119.89 -15.92, -116.79 22.93, -117.54 34.58 M1.37 -3.98 C5.07 1.74, 7.01 26.67, 19.13 32.06 C31.26 37.46, 58.58 33.97, 74.12 28.4 C89.65 22.84, 100.4 13.09, 112.36 -1.33 C124.32 -15.74, 140.9 -41.88, 145.89 -58.09 C150.88 -74.31, 149.42 -85.59, 142.29 -98.61 C135.16 -111.63, 120.39 -128.84, 103.11 -136.21 C85.82 -143.59, 59.28 -145.33, 38.59 -142.87 C17.91 -140.41, -1.75 -131.17, -21.03 -121.46 C-40.31 -111.74, -61.67 -99.36, -77.08 -84.59 C-92.49 -69.82, -107.57 -52.39, -113.5 -32.82 C-119.42 -13.26, -111.92 20.64, -112.65 32.79" stroke="#fa89e7" stroke-width="4" fill="none"></path></g></g><mask></mask><g stroke-linecap="round" transform="translate(937.340646212313 147.74906881595825) rotate(0 21.728366444874155 21.7283664448737)"><path d="M31.8 1.95 C35.76 3.75, 39.75 9.55, 41.52 13.95 C43.3 18.34, 43.79 24.13, 42.46 28.33 C41.13 32.53, 37.5 36.54, 33.53 39.14 C29.57 41.74, 23.28 44.31, 18.68 43.94 C14.07 43.58, 9 40.39, 5.91 36.97 C2.81 33.54, 0.24 28.15, 0.1 23.4 C-0.04 18.66, 2.38 12.38, 5.06 8.48 C7.74 4.59, 11.46 1.04, 16.19 0.03 C20.92 -0.98, 30.74 1.7, 33.42 2.41 C36.1 3.12, 32.6 4, 32.27 4.28 M25.77 0.99 C30.35 1.52, 35.88 4.31, 38.8 7.53 C41.72 10.74, 43.48 15.55, 43.3 20.27 C43.12 24.99, 40.45 32.01, 37.7 35.86 C34.95 39.7, 31.24 42.52, 26.79 43.34 C22.35 44.16, 15.08 42.86, 11.02 40.76 C6.96 38.67, 4.31 34.97, 2.45 30.78 C0.6 26.59, -1.61 20.14, -0.09 15.62 C1.42 11.09, 7.51 5.98, 11.56 3.61 C15.6 1.24, 21.8 1.73, 24.18 1.4 C26.57 1.07, 25.69 1.62, 25.86 1.62" stroke="#fa89e7" stroke-width="4" fill="none"></path></g><g stroke-linecap="round"><g transform="translate(916.7519477452115 194.97372926937396) rotate(0 14.52272307149724 -54.56308819509445)"><path d="M-0.06 -1.08 C3.11 4.61, 7.39 27.79, 19.43 33.27 C31.47 38.74, 55.93 37.06, 72.21 31.77 C88.49 26.48, 105.01 16.88, 117.11 1.53 C129.22 -13.83, 141.12 -43.52, 144.85 -60.37 C148.58 -77.21, 147.06 -86.22, 139.48 -99.54 C131.89 -112.86, 116.47 -132.93, 99.31 -140.29 C82.16 -147.64, 57 -146.31, 36.55 -143.67 C16.1 -141.03, -4.52 -134.31, -23.38 -124.45 C-42.24 -114.59, -62.09 -99.22, -76.61 -84.52 C-91.14 -69.83, -103.91 -56.29, -110.51 -36.3 C-117.12 -16.31, -115.24 23.28, -116.26 35.41 M-1.55 0.97 C1.51 6.36, 6.77 25.98, 19.01 31.33 C31.26 36.69, 55.46 37.96, 71.91 33.1 C88.37 28.25, 105.81 17.71, 117.75 2.2 C129.68 -13.32, 140.2 -42.93, 143.51 -59.99 C146.82 -77.05, 144.9 -87.14, 137.63 -100.17 C130.35 -113.2, 116.34 -131.39, 99.84 -138.18 C83.34 -144.97, 59.36 -142.94, 38.62 -140.9 C17.89 -138.86, -5.54 -135.79, -24.57 -125.95 C-43.6 -116.12, -60.76 -96.99, -75.54 -81.87 C-90.32 -66.75, -106.27 -54.66, -113.24 -35.24 C-120.22 -15.82, -116.89 22.79, -117.4 34.64" stroke="#fa89e7" stroke-width="4" fill="none"></path></g></g><mask></mask><g stroke-linecap="round"><g transform="translate(978.366421787654 253.81329174340135) rotate(176.81647326412786 14.485655182791561 -54.06865272498317)"><path d="M1.01 0.35 C4.24 6.02, 7.47 27.85, 19.31 32.95 C31.15 38.04, 55.83 36.02, 72.05 30.92 C88.27 25.81, 104.42 17.41, 116.63 2.33 C128.85 -12.75, 141.71 -42.39, 145.35 -59.57 C149 -76.74, 146.32 -87.15, 138.5 -100.71 C130.69 -114.27, 115.13 -133.91, 98.46 -140.93 C81.8 -147.96, 58.9 -145.48, 38.53 -142.87 C18.17 -140.26, -4.62 -135.2, -23.71 -125.28 C-42.81 -115.35, -61.46 -98.02, -76.03 -83.32 C-90.61 -68.62, -104.4 -57.05, -111.17 -37.09 C-117.93 -17.12, -115.88 24.18, -116.64 36.48 M0.09 -0.51 C3.24 5.46, 6.9 29.12, 18.83 34.5 C30.76 39.89, 55.3 36.98, 71.67 31.8 C88.03 26.62, 104.91 18.52, 117.01 3.42 C129.12 -11.67, 140.48 -41.2, 144.28 -58.77 C148.08 -76.33, 147.42 -88.56, 139.8 -101.96 C132.18 -115.35, 115.52 -132.27, 98.55 -139.16 C81.58 -146.06, 58.59 -145.93, 37.99 -143.33 C17.38 -140.73, -5.7 -133.49, -25.08 -123.56 C-44.46 -113.62, -64.06 -98.22, -78.31 -83.7 C-92.56 -69.18, -103.96 -56.44, -110.58 -36.44 C-117.19 -16.45, -117.25 24.17, -117.99 36.28" stroke="#fa89e7" stroke-width="4" fill="none"></path></g></g><mask></mask><g transform="translate(1115.9898151154484 112.38382728298984) rotate(0 -57.210121195863394 -51.19191364149492)" stroke="none"><path fill="#fa89e7" d="M -2.63,0 Q -2.63,0 -2.66,-0.89 -2.70,-1.79 -2.71,-3.10 -2.72,-4.41 -2.79,-5.80 -2.86,-7.19 -3.00,-8.42 -3.13,-9.66 -3.38,-10.73 -3.63,-11.80 -4.06,-13.05 -4.49,-14.29 -4.83,-15.31 -5.16,-16.33 -5.48,-17.66 -5.80,-19.00 -6.06,-20.07 -6.31,-21.14 -6.80,-22.66 -7.29,-24.18 -7.66,-25.33 -8.04,-26.49 -8.43,-27.70 -8.82,-28.91 -9.26,-30.11 -9.71,-31.31 -9.97,-32.35 -10.23,-33.39 -10.96,-34.79 -11.70,-36.19 -12.33,-37.80 -12.96,-39.42 -13.46,-40.48 -13.95,-41.55 -14.41,-43.03 -14.88,-44.51 -15.71,-45.96 -16.54,-47.42 -17.22,-48.45 -17.89,-49.48 -18.63,-50.79 -19.38,-52.10 -20.06,-53.53 -20.75,-54.95 -21.54,-56.23 -22.33,-57.52 -23.25,-58.88 -24.16,-60.25 -25.06,-61.42 -25.96,-62.58 -26.77,-63.31 -27.59,-64.04 -28.46,-64.89 -29.34,-65.74 -30.36,-66.75 -31.38,-67.77 -32.79,-69.04 -34.19,-70.31 -35.61,-71.43 -37.03,-72.56 -37.96,-73.12 -38.89,-73.69 -40.12,-74.49 -41.36,-75.30 -42.60,-76.08 -43.84,-76.86 -45.19,-77.70 -46.55,-78.55 -48.32,-79.61 -50.08,-80.67 -52.24,-81.88 -54.41,-83.10 -56.30,-84.07 -58.20,-85.04 -60.09,-86.01 -61.97,-86.97 -63.54,-87.61 -65.10,-88.25 -66.79,-88.97 -68.48,-89.68 -69.63,-90.21 -70.77,-90.74 -73.10,-91.20 -75.42,-91.66 -77.01,-92.21 -78.60,-92.77 -81.87,-93.52 -85.14,-94.27 -90.30,-95.28 -95.46,-96.29 -101.07,-97.61 -106.67,-98.93 -110.79,-99.90 -114.90,-100.87 -115.14,-100.96 -115.37,-101.05 -115.56,-101.22 -115.75,-101.38 -115.88,-101.60 -116.01,-101.81 -116.06,-102.06 -116.11,-102.30 -116.08,-102.55 -116.06,-102.80 -115.95,-103.03 -115.84,-103.25 -115.67,-103.44 -115.50,-103.62 -115.27,-103.73 -115.05,-103.85 -114.81,-103.89 -114.56,-103.93 -114.31,-103.89 -114.06,-103.85 -113.84,-103.73 -113.62,-103.61 -113.45,-103.43 -113.28,-103.24 -113.17,-103.02 -113.07,-102.79 -113.04,-102.54 -113.02,-102.29 -113.07,-102.04 -113.13,-101.80 -113.26,-101.58 -113.39,-101.37 -113.58,-101.21 -113.77,-101.05 -114.00,-100.96 -114.24,-100.86 -114.49,-100.85 -114.74,-100.84 -114.98,-100.91 -115.22,-100.97 -115.43,-101.12 -115.63,-101.26 -115.79,-101.46 -115.94,-101.66 -116.02,-101.90 -116.09,-102.13 -116.09,-102.39 -116.09,-102.64 -116.01,-102.87 -115.93,-103.11 -115.78,-103.31 -115.62,-103.51 -115.42,-103.65 -115.21,-103.79 -114.97,-103.85 -114.72,-103.92 -114.47,-103.91 -114.22,-103.89 -114.22,-103.89 -114.22,-103.89 -110.09,-103.01 -105.95,-102.13 -100.39,-100.94 -94.84,-99.75 -89.61,-98.89 -84.38,-98.04 -80.71,-97.39 -77.03,-96.75 -75.94,-96.25 -74.85,-95.75 -71.85,-94.99 -68.85,-94.24 -67.96,-93.64 -67.06,-93.05 -65.36,-92.33 -63.66,-91.62 -62.07,-90.90 -60.47,-90.19 -58.55,-89.38 -56.62,-88.56 -54.58,-87.77 -52.53,-86.97 -50.24,-86.02 -47.95,-85.07 -45.87,-84.27 -43.80,-83.48 -42.34,-82.75 -40.89,-82.02 -39.54,-81.33 -38.19,-80.63 -36.95,-79.97 -35.72,-79.31 -34.45,-78.63 -33.18,-77.95 -31.59,-76.76 -30.01,-75.57 -28.97,-74.78 -27.93,-73.99 -26.60,-72.79 -25.28,-71.58 -24.47,-70.73 -23.66,-69.89 -22.83,-69.07 -22.00,-68.26 -20.94,-67.14 -19.88,-66.02 -19.11,-64.93 -18.34,-63.83 -17.38,-62.46 -16.43,-61.09 -15.62,-59.82 -14.82,-58.54 -14.02,-56.99 -13.21,-55.45 -12.53,-54.27 -11.85,-53.09 -11.17,-52.05 -10.49,-51.01 -9.63,-49.55 -8.77,-48.09 -8.33,-46.76 -7.89,-45.43 -7.28,-44.02 -6.68,-42.62 -6.04,-40.97 -5.40,-39.32 -4.88,-38.27 -4.36,-37.22 -3.72,-35.54 -3.07,-33.85 -2.53,-32.47 -1.99,-31.09 -1.56,-29.73 -1.14,-28.37 -0.71,-26.89 -0.28,-25.42 0.21,-23.82 0.72,-22.21 0.93,-20.80 1.15,-19.38 1.43,-18.16 1.71,-16.93 2.07,-15.82 2.44,-14.70 2.64,-13.45 2.84,-12.20 3.00,-10.80 3.16,-9.40 3.16,-8.28 3.16,-7.17 3.06,-5.70 2.97,-4.24 2.83,-3.01 2.70,-1.79 2.66,-0.89 2.63,0 2.59,0.31 2.55,0.63 2.44,0.92 2.33,1.22 2.15,1.48 1.97,1.74 1.73,1.95 1.49,2.16 1.21,2.31 0.93,2.46 0.62,2.53 0.31,2.61 -0.00,2.61 -0.31,2.61 -0.62,2.53 -0.93,2.46 -1.21,2.31 -1.49,2.16 -1.73,1.95 -1.97,1.74 -2.15,1.48 -2.33,1.22 -2.44,0.92 -2.55,0.62 -2.59,0.31 -2.63,-0.00 -2.63,-0.00 L -2.63,0 Z"></path></g><g transform="translate(795.0974903694841 208.9498479582703) rotate(0 75.40248277537012 63.65292797073516)" stroke="none"><path fill="#fa89e7" d="M 2.62,0 Q 2.62,0 2.66,0.85 2.70,1.70 2.79,3.06 2.89,4.42 2.86,5.65 2.84,6.89 2.88,8.27 2.93,9.65 2.87,11.01 2.81,12.37 3.07,13.96 3.33,15.54 3.52,17.01 3.70,18.47 4.23,19.75 4.76,21.03 4.76,22.12 4.76,23.20 4.66,24.52 4.56,25.84 4.40,27.20 4.23,28.56 4.23,29.96 4.22,31.36 4.22,32.44 4.22,33.53 4.24,34.82 4.27,36.11 4.26,37.34 4.26,38.57 4.59,39.79 4.91,41.02 5.49,42.54 6.07,44.06 6.50,45.36 6.92,46.65 7.30,47.68 7.67,48.71 8.39,50.33 9.12,51.95 9.91,53.07 10.70,54.20 11.63,55.64 12.55,57.08 13.21,57.96 13.86,58.84 14.64,60.41 15.41,61.99 16.39,63.61 17.37,65.24 18.28,67.08 19.20,68.93 20.21,70.77 21.22,72.61 22.01,73.89 22.81,75.17 24.09,76.96 25.38,78.76 26.38,79.89 27.39,81.02 28.17,81.90 28.95,82.79 29.87,83.74 30.78,84.70 31.61,85.51 32.44,86.32 33.52,87.38 34.61,88.43 35.62,89.36 36.63,90.28 37.49,91.09 38.36,91.89 39.84,92.83 41.33,93.77 42.75,94.57 44.17,95.38 45.51,96.06 46.86,96.75 47.90,97.47 48.93,98.20 49.96,98.78 51.00,99.36 52.76,100.79 54.52,102.21 56.23,103.40 57.93,104.59 59.28,105.20 60.62,105.81 61.88,106.41 63.14,107.01 64.51,107.83 65.89,108.65 67.06,109.27 68.24,109.88 69.28,110.38 70.31,110.88 71.93,111.61 73.54,112.35 74.56,112.79 75.57,113.23 77.07,113.87 78.58,114.50 79.93,114.96 81.29,115.42 82.36,115.72 83.44,116.01 85.38,116.79 87.33,117.58 90.15,118.65 92.96,119.71 95.96,120.74 98.95,121.76 101.37,122.49 103.79,123.22 105.57,123.55 107.35,123.89 108.58,124.26 109.82,124.63 111.44,124.74 113.07,124.84 115.68,124.91 118.30,124.98 120.62,125.12 122.94,125.26 125.51,124.97 128.07,124.69 132.29,124.39 136.51,124.09 140.66,123.47 144.80,122.85 147.91,122.39 151.01,121.93 151.26,121.93 151.50,121.93 151.74,122.01 151.97,122.08 152.16,122.23 152.36,122.38 152.50,122.59 152.63,122.79 152.70,123.03 152.76,123.26 152.75,123.51 152.74,123.75 152.64,123.98 152.55,124.21 152.39,124.39 152.23,124.58 152.02,124.71 151.81,124.83 151.57,124.88 151.33,124.94 151.09,124.91 150.85,124.88 150.63,124.78 150.40,124.67 150.23,124.51 150.05,124.34 149.93,124.12 149.82,123.90 149.78,123.66 149.74,123.42 149.78,123.18 149.82,122.94 149.94,122.72 150.05,122.50 150.23,122.33 150.41,122.17 150.63,122.06 150.85,121.96 151.10,121.93 151.34,121.91 151.58,121.96 151.82,122.02 152.03,122.14 152.24,122.27 152.40,122.46 152.56,122.64 152.65,122.87 152.74,123.10 152.75,123.35 152.76,123.59 152.70,123.83 152.63,124.06 152.49,124.26 152.35,124.47 152.16,124.62 151.96,124.76 151.73,124.84 151.50,124.92 151.50,124.92 151.50,124.92 148.40,125.46 145.31,126.00 141.06,126.73 136.81,127.47 132.70,127.90 128.59,128.32 125.76,128.82 122.93,129.31 120.58,129.43 118.23,129.54 116.38,129.57 114.53,129.60 112.52,129.26 110.51,128.92 108.59,128.17 106.68,127.42 104.78,127.07 102.87,126.72 100.34,126.15 97.81,125.58 94.70,124.78 91.60,123.97 88.70,123.21 85.80,122.45 83.88,122.03 81.96,121.60 80.40,121.20 78.85,120.79 77.42,120.14 75.99,119.48 74.67,118.78 73.34,118.07 72.31,117.57 71.28,117.06 69.67,116.13 68.06,115.19 67.02,114.61 65.98,114.02 64.74,113.31 63.50,112.61 62.28,111.86 61.06,111.12 59.91,110.50 58.76,109.88 57.21,109.16 55.66,108.45 53.65,107.45 51.65,106.45 49.92,105.51 48.20,104.56 46.89,103.89 45.59,103.22 44.17,102.24 42.76,101.27 41.29,100.52 39.81,99.76 38.18,98.66 36.55,97.56 35.51,96.82 34.46,96.07 33.66,95.32 32.87,94.57 31.81,93.69 30.76,92.81 28.71,91.05 26.66,89.29 25.83,88.48 24.99,87.67 24.32,86.74 23.65,85.80 22.80,84.60 21.95,83.40 20.77,81.77 19.58,80.14 18.88,79.16 18.18,78.18 17.38,77.02 16.59,75.86 15.09,74.12 13.60,72.38 12.63,70.95 11.66,69.52 10.94,68.18 10.22,66.84 9.50,65.28 8.79,63.72 8.24,62.80 7.70,61.87 6.96,60.78 6.23,59.68 5.12,58.17 4.02,56.65 3.19,55.23 2.36,53.80 1.62,51.90 0.88,50.01 0.45,48.61 0.03,47.21 -0.49,46.19 -1.01,45.17 -1.38,44.13 -1.75,43.09 -2.32,40.84 -2.89,38.59 -2.89,37.35 -2.90,36.11 -2.87,34.81 -2.85,33.52 -2.84,32.41 -2.84,31.29 -2.82,29.91 -2.80,28.52 -2.68,27.45 -2.55,26.38 -2.29,24.95 -2.02,23.52 -1.96,22.46 -1.90,21.39 -2.40,19.74 -2.90,18.09 -3.06,16.46 -3.23,14.82 -3.46,13.55 -3.68,12.28 -3.53,10.94 -3.38,9.61 -3.33,8.54 -3.29,7.48 -3.09,5.95 -2.89,4.42 -2.79,3.06 -2.70,1.70 -2.66,0.85 -2.62,0 -2.58,-0.31 -2.55,-0.62 -2.43,-0.92 -2.32,-1.22 -2.14,-1.48 -1.96,-1.74 -1.72,-1.95 -1.49,-2.16 -1.21,-2.30 -0.93,-2.45 -0.62,-2.53 -0.31,-2.60 0.00,-2.60 0.31,-2.60 0.62,-2.53 0.93,-2.45 1.21,-2.30 1.49,-2.16 1.72,-1.95 1.96,-1.74 2.14,-1.48 2.32,-1.22 2.43,-0.92 2.55,-0.62 2.58,-0.31 2.62,0.00 2.62,0.00 L 2.62,0 Z"></path></g><g stroke-linecap="round"><g transform="translate(113.90793734102408 264.6243397930075) rotate(0 -11.977079947437232 57.90505273435724)"><path d="M0 0 C-8.34 38.2, -15.54 78.58, -23.95 115.81 M0 0 C-7.07 43.49, -16.94 84.77, -23.95 115.81" stroke="#f08c00" stroke-width="2" fill="none"></path></g><g transform="translate(113.90793734102408 264.6243397930075) rotate(0 -11.977079947437232 57.90505273435724)"><path d="M-1.28 1.53 L3.67 13.87 L-7.49 10.79 L-1.11 -0.35" stroke="none" stroke-width="0" fill="#f08c00" fill-rule="evenodd"></path><path d="M0 0 C0.5 4.67, 2.22 10.98, 3.49 14.59 M0 0 C1.86 6.02, 2.3 10.58, 3.49 14.59 M3.49 14.59 C-0.39 14.74, -3.75 13.77, -8.93 12.05 M3.49 14.59 C0.02 14.27, -5.32 13.55, -8.93 12.05 M-8.93 12.05 C-6.63 9.34, -3.15 6.74, 0 0 M-8.93 12.05 C-5.71 7.79, -3.64 4.61, 0 0 M0 0 C0 0, 0 0, 0 0 M0 0 C0 0, 0 0, 0 0" stroke="#f08c00" stroke-width="2" fill="none"></path></g><g transform="translate(113.90793734102408 264.6243397930075) rotate(0 -11.977079947437232 57.90505273435724)"><path d="M-25.24 117.34 L-26.95 100.43 L-13.32 102.69 L-25.07 115.46" stroke="none" stroke-width="0" fill="#f08c00" fill-rule="evenodd"></path><path d="M-23.95 115.81 C-25.81 110.78, -26.3 107.38, -27.12 101.15 M-23.95 115.81 C-24.8 111.21, -26.8 105.08, -27.12 101.15 M-27.12 101.15 C-24.22 102.58, -20.74 103.08, -14.76 103.96 M-27.12 101.15 C-22.44 102.5, -19.61 103.54, -14.76 103.96 M-14.76 103.96 C-17.22 107.45, -18.34 110.9, -23.95 115.81 M-14.76 103.96 C-17.5 107.36, -21.31 111.92, -23.95 115.81 M-23.95 115.81 C-23.95 115.81, -23.95 115.81, -23.95 115.81 M-23.95 115.81 C-23.95 115.81, -23.95 115.81, -23.95 115.81" stroke="#f08c00" stroke-width="2" fill="none"></path></g></g><mask></mask><g stroke-linecap="round"><g transform="translate(134.882182026824 412.4509158213177) rotate(0 337.99130360771414 -148.88753584604524)"><path d="M0 0 C266.31 -117.24, 532.15 -234.63, 675.98 -297.78 M0 0 C260.19 -116.32, 519.94 -231.01, 675.98 -297.78" stroke="#f08c00" stroke-width="2" fill="none"></path></g><g transform="translate(134.882182026824 412.4509158213177) rotate(0 337.99130360771414 -148.88753584604524)"><path d="M1.91 -1.68 L8.77 -11.21 L15.3 0.62 L-1.78 -1.92" stroke="none" stroke-width="0" fill="#f08c00" fill-rule="evenodd"></path><path d="M0 0 C4.98 -4.35, 8.9 -9.33, 9.88 -11.28 M0 0 C4.38 -4.1, 8.33 -9.02, 9.88 -11.28 M9.88 -11.28 C10.78 -7.33, 12.75 -3.52, 15 0.32 M9.88 -11.28 C10.68 -8.34, 12.89 -5.91, 15 0.32 M15 0.32 C11.25 -0.72, 6.99 -0.69, 0 0 M15 0.32 C10.83 0.9, 8.57 0.1, 0 0 M0 0 C0 0, 0 0, 0 0 M0 0 C0 0, 0 0, 0 0" stroke="#f08c00" stroke-width="2" fill="none"></path></g><g transform="translate(134.882182026824 412.4509158213177) rotate(0 337.99130360771414 -148.88753584604524)"><path d="M677.89 -299.46 L664.91 -286.48 L661.29 -297.89 L674.2 -299.7" stroke="none" stroke-width="0" fill="#f08c00" fill-rule="evenodd"></path><path d="M675.98 -297.78 C673.19 -293.26, 669.3 -289.39, 666.03 -286.55 M675.98 -297.78 C672.7 -293.08, 669.03 -289.35, 666.03 -286.55 M666.03 -286.55 C663.55 -290.74, 661.99 -295.01, 660.99 -298.19 M666.03 -286.55 C664.12 -289.41, 663.79 -292.78, 660.99 -298.19 M660.99 -298.19 C664.29 -298.9, 667.08 -298.7, 675.98 -297.78 M660.99 -298.19 C663.98 -297.36, 668.89 -297.99, 675.98 -297.78 M675.98 -297.78 C675.98 -297.78, 675.98 -297.78, 675.98 -297.78 M675.98 -297.78 C675.98 -297.78, 675.98 -297.78, 675.98 -297.78" stroke="#f08c00" stroke-width="2" fill="none"></path></g></g><mask></mask><g stroke-linecap="round"><g transform="translate(146.5765558754665 448.396303333725) rotate(0 483.27208843018434 -130.18136054691445)"><path d="M0 0 C205.08 -57.34, 407.62 -111.07, 966.54 -260.36 M0 0 C340.72 -89.89, 681.15 -181.5, 966.54 -260.36" stroke="#f08c00" stroke-width="2" fill="none"></path></g><g transform="translate(146.5765558754665 448.396303333725) rotate(0 483.27208843018434 -130.18136054691445)"><path d="M-0.82 -1.29 L11.61 -11.25 L14.22 1.42 L0.71 1.1" stroke="none" stroke-width="0" fill="#f08c00" fill-rule="evenodd"></path><path d="M0 0 C3.9 -3.57, 3.9 -3.4, 11.46 -9.68 M0 0 C4.34 -3.49, 7.31 -6.46, 11.46 -9.68 M11.46 -9.68 C12.3 -6.84, 12.37 -2.83, 14.78 2.56 M11.46 -9.68 C12.16 -6.31, 13.88 -2.46, 14.78 2.56 M14.78 2.56 C8.79 2.3, 2.98 1.08, 0 0 M14.78 2.56 C9.43 1, 3.52 0.07, 0 0 M0 0 C0 0, 0 0, 0 0 M0 0 C0 0, 0 0, 0 0" stroke="#f08c00" stroke-width="2" fill="none"></path></g><g transform="translate(146.5765558754665 448.396303333725) rotate(0 483.27208843018434 -130.18136054691445)"><path d="M965.72 -261.66 L955.25 -252.23 L951.2 -264.03 L967.26 -259.26" stroke="none" stroke-width="0" fill="#f08c00" fill-rule="evenodd"></path><path d="M966.54 -260.36 C965.53 -259.74, 960.7 -255.49, 955.11 -250.66 M966.54 -260.36 C962.89 -257.13, 957.78 -253.27, 955.11 -250.66 M955.11 -250.66 C954.02 -254.19, 952.36 -256.53, 951.76 -262.89 M955.11 -250.66 C953.82 -254.46, 953.59 -257.74, 951.76 -262.89 M951.76 -262.89 C956.51 -261.53, 961.41 -260.91, 966.54 -260.36 M951.76 -262.89 C957.54 -262.76, 962.78 -261.76, 966.54 -260.36 M966.54 -260.36 C966.54 -260.36, 966.54 -260.36, 966.54 -260.36 M966.54 -260.36 C966.54 -260.36, 966.54 -260.36, 966.54 -260.36" stroke="#f08c00" stroke-width="2" fill="none"></path></g></g><mask></mask><g stroke-linecap="round"><g transform="translate(144.52194811186746 434.8078697114588) rotate(0 391.2841903614544 -138.0263384705861)"><path d="M0 0 C172.11 -59.06, 346.2 -120.65, 782.57 -276.05 M0 0 C196.34 -70.7, 393.56 -140.59, 782.57 -276.05" stroke="#f08c00" stroke-width="2" fill="none"></path></g><g transform="translate(144.52194811186746 434.8078697114588) rotate(0 391.2841903614544 -138.0263384705861)"><path d="M0.92 0.73 L10.91 -8.92 L16.71 1.34 L-1.12 -0.41" stroke="none" stroke-width="0" fill="#f08c00" fill-rule="evenodd"></path><path d="M0 0 C0.99 -1.01, 4.07 -3.92, 10.73 -10.48 M0 0 C2.08 -2.2, 6.16 -5.93, 10.73 -10.48 M10.73 -10.48 C12.54 -6.78, 14.51 -1.54, 14.93 1.48 M10.73 -10.48 C11.54 -6.75, 13.13 -3.21, 14.93 1.48 M14.93 1.48 C10.16 -0.1, 7.18 0.39, 0 0 M14.93 1.48 C10.73 1.64, 6.36 0.76, 0 0 M0 0 C0 0, 0 0, 0 0 M0 0 C0 0, 0 0, 0 0" stroke="#f08c00" stroke-width="2" fill="none"></path></g><g transform="translate(144.52194811186746 434.8078697114588) rotate(0 391.2841903614544 -138.0263384705861)"><path d="M783.49 -275.32 L772 -264.02 L769.42 -277.7 L781.45 -276.46" stroke="none" stroke-width="0" fill="#f08c00" fill-rule="evenodd"></path><path d="M782.57 -276.05 C778.96 -272.52, 777.28 -270.78, 771.82 -265.59 M782.57 -276.05 C779.22 -272.88, 777.9 -271.35, 771.82 -265.59 M771.82 -265.59 C770.36 -270.75, 769.22 -274.36, 767.64 -277.55 M771.82 -265.59 C770.17 -268.95, 769.28 -272.5, 767.64 -277.55 M767.64 -277.55 C770.51 -278.21, 775.14 -276.95, 782.57 -276.05 M767.64 -277.55 C772.68 -276.62, 777.52 -276.58, 782.57 -276.05 M782.57 -276.05 C782.57 -276.05, 782.57 -276.05, 782.57 -276.05 M782.57 -276.05 C782.57 -276.05, 782.57 -276.05, 782.57 -276.05" stroke="#f08c00" stroke-width="2" fill="none"></path></g></g><mask></mask><g stroke-linecap="round"><g transform="translate(139.82380754417863 421.4428935892756) rotate(0 461.55239429481026 -192.82020348876722)"><path d="M0 0 C252.32 -106.68, 503.34 -212.95, 923.1 -385.64 M0 0 C358.62 -149.13, 718.76 -299.95, 923.1 -385.64" stroke="#f08c00" stroke-width="2" fill="none"></path></g><g transform="translate(139.82380754417863 421.4428935892756) rotate(0 461.55239429481026 -192.82020348876722)"><path d="M-0.9 -1.07 L10.43 -12.55 L14.93 0.85 L-0.4 -1.08" stroke="none" stroke-width="0" fill="#f08c00" fill-rule="evenodd"></path><path d="M0 0 C3.85 -2.24, 5.04 -7.23, 10.08 -11.11 M0 0 C3.53 -3.85, 8.01 -9.09, 10.08 -11.11 M10.08 -11.11 C11.93 -6.69, 13.84 -1.98, 14.99 0.58 M10.08 -11.11 C12.28 -7.62, 13.85 -3.63, 14.99 0.58 M14.99 0.58 C10.22 0.94, 4.46 -0.94, 0 0 M14.99 0.58 C10.02 0.75, 6.16 -0.03, 0 0 M0 0 C0 0, 0 0, 0 0 M0 0 C0 0, 0 0, 0 0" stroke="#f08c00" stroke-width="2" fill="none"></path></g><g transform="translate(139.82380754417863 421.4428935892756) rotate(0 461.55239429481026 -192.82020348876722)"><path d="M922.2 -386.71 L913.37 -375.98 L908.06 -385.96 L922.7 -386.72" stroke="none" stroke-width="0" fill="#f08c00" fill-rule="evenodd"></path><path d="M923.1 -385.64 C921.48 -381.72, 917.16 -380.65, 913.02 -374.54 M923.1 -385.64 C918.93 -380.88, 915.55 -377.47, 913.02 -374.54 M913.02 -374.54 C911.32 -379.13, 909.47 -383.41, 908.12 -386.23 M913.02 -374.54 C911.85 -379.01, 910.11 -382.92, 908.12 -386.23 M908.12 -386.23 C912.66 -385.71, 916.21 -387.22, 923.1 -385.64 M908.12 -386.23 C912.49 -385.76, 917.98 -386.18, 923.1 -385.64 M923.1 -385.64 C923.1 -385.64, 923.1 -385.64, 923.1 -385.64 M923.1 -385.64 C923.1 -385.64, 923.1 -385.64, 923.1 -385.64" stroke="#f08c00" stroke-width="2" fill="none"></path></g></g><mask></mask><g stroke-linecap="round"><g transform="translate(146.38664465747024 459.4834071880473) rotate(0 397.59916226317546 -61.81561242272528)"><path d="M0 0 C254.7 -42.48, 509.45 -81.76, 795.2 -123.63 M0 0 C244.07 -40.51, 488.62 -78.75, 795.2 -123.63" stroke="#f08c00" stroke-width="2" fill="none"></path></g><g transform="translate(146.38664465747024 459.4834071880473) rotate(0 397.59916226317546 -61.81561242272528)"><path d="M0.19 1.81 L11.9 -7.78 L13.49 6.02 L-0.71 -1.74" stroke="none" stroke-width="0" fill="#f08c00" fill-rule="evenodd"></path><path d="M0 0 C4.71 -3.83, 9.26 -5.97, 12.43 -8.39 M0 0 C3.73 -2.79, 8.28 -5.89, 12.43 -8.39 M12.43 -8.39 C13.1 -5.17, 13.01 -0.75, 14.42 4.13 M12.43 -8.39 C12.48 -5.2, 13.05 -1.39, 14.42 4.13 M14.42 4.13 C10.21 2.73, 5.26 2.67, 0 0 M14.42 4.13 C11.33 3.56, 8.06 2.26, 0 0 M0 0 C0 0, 0 0, 0 0 M0 0 C0 0, 0 0, 0 0" stroke="#f08c00" stroke-width="2" fill="none"></path></g><g transform="translate(146.38664465747024 459.4834071880473) rotate(0 397.59916226317546 -61.81561242272528)"><path d="M795.39 -121.82 L782.15 -114.74 L779.89 -126.01 L794.49 -125.37" stroke="none" stroke-width="0" fill="#f08c00" fill-rule="evenodd"></path><path d="M795.2 -123.63 C791.98 -121.94, 788.55 -118.75, 782.69 -115.36 M795.2 -123.63 C791.28 -121.11, 788.18 -119.09, 782.69 -115.36 M782.69 -115.36 C782.32 -119.52, 781.09 -122.5, 780.82 -127.9 M782.69 -115.36 C781.41 -119.25, 780.9 -122.5, 780.82 -127.9 M780.82 -127.9 C786.1 -126.38, 790.63 -123.67, 795.2 -123.63 M780.82 -127.9 C784.33 -126.48, 787.66 -125.85, 795.2 -123.63 M795.2 -123.63 C795.2 -123.63, 795.2 -123.63, 795.2 -123.63 M795.2 -123.63 C795.2 -123.63, 795.2 -123.63, 795.2 -123.63" stroke="#f08c00" stroke-width="2" fill="none"></path></g></g><mask></mask></svg>
